<svg width="778" height="238" viewBox="0 0 778 238" fill="none" xmlns="http://www.w3.org/2000/svg">
<g clip-path="url(#clip0_286_125)">
<mask id="path-1-inside-1_286_125" fill="white">
<path d="M0 0H778V238H0V0Z"/>
</mask>
<g clip-path="url(#clip1_286_125)">
<path fill-rule="evenodd" clip-rule="evenodd" d="M742.055 213.439C745.308 208.027 747.961 202.074 750.564 196.764C751.949 198.903 755.917 222.306 761.398 259H749.538C745.946 232.064 743.275 215.36 742.055 213.439Z" fill="#1A1A1A"/>
<path fill-rule="evenodd" clip-rule="evenodd" d="M752.211 197.914C754.84 192.89 757.284 188.104 759.755 184.469C761.101 186.419 765.902 215.104 772.504 259H761.783C756.986 222.969 753.499 199.977 752.211 197.914Z" fill="#1A1A1A"/>
<path fill-rule="evenodd" clip-rule="evenodd" d="M760.939 183.01C763.155 179.85 765.27 176.848 767.359 173.995C769.833 188.316 772.338 202.447 774.742 216.491C777.187 230.753 779.6 244.943 781.949 258.97L781.792 258.998H772.154C768.562 234.04 764.747 208.624 760.939 183.008V183.01Z" fill="#1A1A1A"/>
<path fill-rule="evenodd" clip-rule="evenodd" d="M768.227 172.509C770.077 169.554 771.843 166.925 773.523 164.448C776.708 180.17 779.888 195.719 782.951 210.97C786.041 226.375 789.075 241.604 792 256.537V257.149C789.222 257.673 786.367 258.194 783.436 258.669C781.045 244.531 778.517 230.171 775.966 215.687C773.459 201.447 770.79 187.07 768.227 172.509Z" fill="#1A1A1A"/>
<path fill-rule="evenodd" clip-rule="evenodd" d="M774.358 163.351C775.942 160.983 777.189 158.594 778.291 156.057C782.167 172.96 786.09 189.716 789.718 206.208L792 216.578V249.992C789.41 236.947 786.722 223.713 784.005 210.342C780.872 194.909 777.633 179.181 774.356 163.353L774.358 163.351Z" fill="#1A1A1A"/>
<path fill-rule="evenodd" clip-rule="evenodd" d="M671.991 238.394C678.501 231.546 684.54 225.87 690.223 220.627C696.643 229.483 702.593 238.08 708.871 247.609C706.065 251.05 703.199 254.914 700.2 259.002H684.862C680.539 251.93 676.252 245.093 671.991 238.394Z" fill="#1A1A1A"/>
<path fill-rule="evenodd" clip-rule="evenodd" d="M692.883 217.82C698.513 212.788 703.472 208.005 708.287 203.403C713.915 210.954 719.69 219.009 725.32 226.954C721.022 232.454 716.277 238.078 711.397 244.292C705.194 235.312 699.252 226.606 692.883 217.82Z" fill="#1A1A1A"/>
<path fill-rule="evenodd" clip-rule="evenodd" d="M710.62 201.286C715.06 197.394 719.317 193.443 723.303 189.773C728.292 196.388 733.468 202.813 738.711 209.667C735.06 214.178 731.337 218.939 727.369 224.295C721.78 216.583 716.13 208.626 710.617 201.286H710.62Z" fill="#1A1A1A"/>
<path fill-rule="evenodd" clip-rule="evenodd" d="M737.135 176.271C740.191 173.241 743.199 170.538 746.104 167.925C750.223 172.806 754.722 178.175 758.828 183.365C756.501 186.497 753.799 189.842 751.106 193.654C746.43 187.525 741.862 182.18 737.135 176.271Z" fill="#1A1A1A"/>
<path fill-rule="evenodd" clip-rule="evenodd" d="M747.794 167.027C750.39 164.483 753.017 162.175 755.301 159.596C758.985 163.946 762.848 168.428 766.438 172.778C764.48 175.716 762.297 178.66 760.017 181.799C756.034 176.911 751.788 171.813 747.794 167.027Z" fill="#1A1A1A"/>
<path fill-rule="evenodd" clip-rule="evenodd" d="M756.957 158.11C759.068 155.773 761.091 153.645 763.029 151.531C766.396 155.366 769.867 159.419 773.059 163.198C771.512 165.623 769.686 168.079 767.772 170.785C764.184 166.481 760.389 162.17 756.955 158.11H756.957Z" fill="#1A1A1A"/>
<path fill-rule="evenodd" clip-rule="evenodd" d="M764.246 150.352C766.09 148.54 767.731 146.654 769.483 144.905C772.399 148.192 775.474 151.559 778.395 154.846C777.165 157.213 775.728 159.539 774.407 162.042C771.021 158.235 767.488 154.199 764.246 150.352Z" fill="#1A1A1A"/>
<path fill-rule="evenodd" clip-rule="evenodd" d="M770.164 143.99C771.706 142.326 773.111 140.394 774.32 138.673C777.035 141.605 779.588 144.493 782.488 147.614C781.296 149.718 780.091 151.707 778.816 153.868C775.965 150.683 773.019 147.379 770.162 143.99H770.164Z" fill="#1A1A1A"/>
<path fill-rule="evenodd" clip-rule="evenodd" d="M775.098 137.319C776.41 135.788 777.537 134.335 778.714 132.836C781.231 135.57 783.716 138.382 785.891 140.777C785.167 142.67 784.182 144.448 783.384 146.482C780.678 143.428 777.871 140.285 775.096 137.319H775.098Z" fill="#1A1A1A"/>
<path fill-rule="evenodd" clip-rule="evenodd" d="M765.41 82.0964C763.626 81.1359 761.95 80.232 760.112 79.4958C760.115 79.7594 760.06 79.9184 759.894 79.901C761.845 80.8157 763.912 82.0267 765.535 82.8958C765.529 82.5408 765.529 82.4384 765.41 82.0964Z" fill="#1A1A1A"/>
<path fill-rule="evenodd" clip-rule="evenodd" d="M777.439 91.3357C776.398 90.2489 775.306 89.2492 774.162 88.3518C774.453 88.7569 774.746 89.1816 774.98 89.5236C776.245 90.6497 777.452 91.6951 778.609 92.7711C778.2 92.3202 777.964 91.9826 777.439 91.3357Z" fill="#1A1A1A"/>
<path fill-rule="evenodd" clip-rule="evenodd" d="M585.925 248.855C596.943 241.43 606.483 234.397 616.438 227.932C622.374 238.017 628.545 247.986 634.777 259.002H591.348C589.556 255.583 587.749 252.2 585.925 248.855Z" fill="#1A1A1A"/>
<path fill-rule="evenodd" clip-rule="evenodd" d="M620.9 225.068C629.657 218.889 637.847 212.971 645.426 207.548C651.783 217.02 658.078 226.458 664.348 236.479C656.989 243.298 649.458 250.891 640.85 258.264C634.251 246.653 627.391 235.815 620.9 225.068Z" fill="#1A1A1A"/>
<path fill-rule="evenodd" clip-rule="evenodd" d="M649.054 205.019C656.316 200.811 662.743 196.17 668.993 191.849C674.759 199.576 680.715 207.679 686.473 216.132C680.61 221.631 674.597 227.244 667.857 233.682C661.435 223.598 655.433 214.097 649.054 205.019Z" fill="#1A1A1A"/>
<path fill-rule="evenodd" clip-rule="evenodd" d="M671.838 189.551C677.858 185.669 683.346 181.736 688.633 178.432C693.925 185.046 699.555 192.545 704.93 200.195C700.008 204.523 694.762 208.746 689.101 213.594C683.56 205.518 677.643 197.492 671.838 189.551Z" fill="#1A1A1A"/>
<path fill-rule="evenodd" clip-rule="evenodd" d="M691.152 176.82C696.187 173.829 700.737 170.645 705.25 168.045C710.268 173.949 715.078 180.089 720.203 186.687C716.174 190.202 711.74 193.787 707.291 197.771C701.971 190.786 696.456 183.387 691.152 176.82Z" fill="#1A1A1A"/>
<path fill-rule="evenodd" clip-rule="evenodd" d="M751.168 76.1285C752.338 76.0087 753.397 75.8824 754.342 75.6995C756.28 77.6096 758.058 79.3913 759.957 81.2034C759.01 81.3341 758.117 81.6434 757.111 81.8786C755.156 80.0316 753.268 78.1106 751.168 76.1285Z" fill="#1A1A1A"/>
<path fill-rule="evenodd" clip-rule="evenodd" d="M721.029 157.39C724.592 155.257 727.818 152.999 731.135 150.925C735.243 155.813 739.473 160.724 743.625 165.718C740.665 168.103 737.596 170.743 734.293 173.396C729.921 168.012 725.535 162.745 721.029 157.39Z" fill="#1A1A1A"/>
<path fill-rule="evenodd" clip-rule="evenodd" d="M732.988 150.261C735.943 148.185 738.925 146.316 741.759 144.406C745.288 148.477 748.978 152.735 752.52 157.034C750.109 159.441 747.547 161.722 744.883 164.202C740.97 159.674 736.984 154.959 732.988 150.261Z" fill="#1A1A1A"/>
<path fill-rule="evenodd" clip-rule="evenodd" d="M743.525 143.276C746.187 141.657 748.331 139.765 750.697 138.223C754.06 141.978 757.452 145.693 760.633 149.398C758.695 151.428 756.544 153.41 754.239 155.634C750.575 151.165 746.998 147.144 743.527 143.276H743.525Z" fill="#1A1A1A"/>
<path fill-rule="evenodd" clip-rule="evenodd" d="M752.035 137.192C754.253 135.637 756.268 134.06 758.386 132.843C761.323 136.027 764.41 139.342 767.531 143.069C765.843 144.824 764.073 146.538 762.098 148.534C758.854 144.857 755.397 140.862 752.035 137.192Z" fill="#1A1A1A"/>
<path fill-rule="evenodd" clip-rule="evenodd" d="M759.133 132.174C760.988 130.7 762.768 129.458 764.295 128.029C766.986 130.946 769.762 133.969 772.441 136.809C771.044 138.46 769.635 140.285 767.964 142.073C765.035 138.643 762.073 135.409 759.133 132.172V132.174Z" fill="#1A1A1A"/>
<path fill-rule="evenodd" clip-rule="evenodd" d="M765.389 127.051C767.019 125.988 768.333 124.571 769.641 123.353C772.207 126.028 774.797 128.842 777.348 131.706C775.98 132.947 774.917 134.605 773.66 136.114C770.978 133.137 768.077 129.992 765.389 127.054V127.051Z" fill="#1A1A1A"/>
<path fill-rule="evenodd" clip-rule="evenodd" d="M770.357 122.97C771.777 121.935 772.704 120.556 773.868 119.374C776.064 121.661 778.337 124.096 780.441 126.418C779.405 127.716 778.488 129.166 777.442 130.665C775.082 128.093 772.739 125.514 770.357 122.97Z" fill="#1A1A1A"/>
<path fill-rule="evenodd" clip-rule="evenodd" d="M774.421 87.7049C773.614 86.8141 772.759 86.0234 771.965 85.3156C772.481 85.9842 772.942 86.618 773.456 87.1669C774.43 88.0708 775.408 89.0487 776.27 89.8307C775.574 89.0531 775.055 88.465 774.419 87.7049H774.421Z" fill="#1A1A1A"/>
<path fill-rule="evenodd" clip-rule="evenodd" d="M776.523 92.2156C776.387 91.5361 776.081 90.8043 775.945 90.1182C776.759 91.0787 777.632 92.0436 778.448 92.9126C778.754 93.7076 779.183 94.5766 779.5 95.4348C778.562 94.4351 777.512 93.3656 776.523 92.2156Z" fill="#1A1A1A"/>
<path fill-rule="evenodd" clip-rule="evenodd" d="M403.79 144.476C421.754 140.69 438.26 136.959 453.806 133.409C459.798 143.082 465.914 152.319 471.641 162.231C456.56 166.433 439.923 171.847 421.5 177.362C415.506 165.947 409.696 155.148 403.788 144.476H403.79Z" fill="#1A1A1A"/>
<path fill-rule="evenodd" clip-rule="evenodd" d="M507.387 133.553C519.927 130.769 530.961 128.025 541.942 125.949C547.327 133.25 553.192 140.812 559.039 148.74C548.325 151.999 537.079 155.497 524.994 159.367C519.363 150.672 513.234 141.742 507.387 133.551V133.553Z" fill="#1A1A1A"/>
<path fill-rule="evenodd" clip-rule="evenodd" d="M522.14 76.7297C532.128 76.3289 541.473 75.7234 550.49 75.2443C555.562 80.7896 560.528 86.1977 565.301 91.8171C556.555 92.6121 547.267 93.6227 537.387 95.0689C532.456 88.7351 527.534 82.6017 522.14 76.7297Z" fill="#1A1A1A"/>
<path fill-rule="evenodd" clip-rule="evenodd" d="M512.806 235.597C527.506 227.771 540.457 220.226 553.129 213.474C559.777 224.988 566.587 237.37 573.363 249.728C569.216 252.799 564.994 255.879 560.665 259H524.216C520.355 251.002 516.56 243.229 512.806 235.597Z" fill="#1A1A1A"/>
<path fill-rule="evenodd" clip-rule="evenodd" d="M558.989 210.445C570.462 204.808 581.054 199.572 590.783 194.382C597.053 203.911 603.731 214.139 609.762 224.691C600.283 231.265 590.088 238.01 578.877 245.276C572.4 233.105 565.639 221.799 558.989 210.445Z" fill="#1A1A1A"/>
<path fill-rule="evenodd" clip-rule="evenodd" d="M596.112 192.935C605.59 188.083 614.229 183.84 622.419 179.786C628.064 187.819 634.021 196.13 640.008 204.583C632.144 209.946 623.534 215.857 614.467 222.075C608.246 211.586 602.246 202.307 596.112 192.933V192.935Z" fill="#1A1A1A"/>
<path fill-rule="evenodd" clip-rule="evenodd" d="M627.467 176.831C635.036 173.337 642.182 169.931 648.95 166.542C654.351 173.47 659.776 180.782 665.207 188.294C658.8 192.735 652.095 196.978 644.776 201.214C639.104 193.182 633.24 184.962 627.467 176.833V176.831Z" fill="#1A1A1A"/>
<path fill-rule="evenodd" clip-rule="evenodd" d="M652.866 164.558C659.017 161.077 664.905 158.509 670.748 155.965C675.832 162.443 681.049 169.062 686.41 175.751C680.885 178.854 675.108 182.457 669.285 186.458C663.89 179.055 658.255 171.634 652.866 164.558Z" fill="#1A1A1A"/>
<path fill-rule="evenodd" clip-rule="evenodd" d="M673.304 155.253C678.495 152.737 683.62 150.372 688.61 148.279C693.028 153.859 697.703 159.419 702.316 164.982C697.786 167.79 692.989 170.813 688.124 174.054C683.119 167.685 678.066 161.312 673.306 155.253H673.304Z" fill="#1A1A1A"/>
<path fill-rule="evenodd" clip-rule="evenodd" d="M706.278 139.948C710.402 138.449 714.002 136.77 717.579 135.117C721.427 139.455 725.427 144.012 729.113 148.305C725.865 150.402 722.706 152.661 718.83 154.649C714.766 149.755 710.566 144.811 706.278 139.945V139.948Z" fill="#1A1A1A"/>
<path fill-rule="evenodd" clip-rule="evenodd" d="M719.481 134.341C722.955 132.695 726.092 131.055 729.178 129.842C732.761 133.734 736.077 137.524 739.785 141.732C736.959 143.572 734.05 145.349 731.042 147.386C727.102 142.967 723.401 138.617 719.481 134.341Z" fill="#1A1A1A"/>
<path fill-rule="evenodd" clip-rule="evenodd" d="M730.718 129.236C733.533 127.91 736.088 126.533 738.74 125.383C742.106 128.99 745.451 132.529 748.445 136.101C746.26 137.713 743.69 139.257 741.157 140.915C737.561 136.931 734.12 133.072 730.72 129.236H730.718Z" fill="#1A1A1A"/>
<path fill-rule="evenodd" clip-rule="evenodd" d="M740.667 124.88C743.235 123.726 745.539 122.639 747.77 121.393C750.439 124.279 753.606 127.67 756.316 130.774C754.383 132.174 752.186 133.568 749.966 135.147C746.965 131.66 743.741 128.225 740.667 124.88Z" fill="#1A1A1A"/>
<path fill-rule="evenodd" clip-rule="evenodd" d="M749.004 120.763C751.147 119.809 753.285 118.866 755.166 117.906C757.782 120.685 760.298 123.434 762.898 126.15C761.251 127.396 759.35 128.546 757.557 130.083C754.724 126.882 751.974 123.824 749.004 120.766V120.763Z" fill="#1A1A1A"/>
<path fill-rule="evenodd" clip-rule="evenodd" d="M755.718 117.374C757.588 116.483 759.207 115.488 760.994 114.682C763.258 117.004 765.655 119.559 768.07 122.068C766.578 123.188 765.137 124.451 763.507 125.738C760.97 122.944 758.334 120.21 755.718 117.374Z" fill="#1A1A1A"/>
<path fill-rule="evenodd" clip-rule="evenodd" d="M761.766 113.898C763.188 112.846 764.599 111.857 766.006 111.115C768.324 113.55 770.422 115.763 772.535 118.019C771.43 119.208 770.199 120.313 768.9 121.489C766.485 118.892 764.089 116.418 761.766 113.896V113.898Z" fill="#1A1A1A"/>
<path fill-rule="evenodd" clip-rule="evenodd" d="M766.824 110.583C768.103 109.886 769.317 109.154 770.352 108.24C772.316 110.32 774.11 112.201 776.219 114.453C775.309 115.466 774.392 116.455 773.353 117.477C771.242 115.281 769.147 113.121 766.824 110.583Z" fill="#1A1A1A"/>
<path fill-rule="evenodd" clip-rule="evenodd" d="M570.926 102.934C579.286 101.784 587.253 100.802 594.985 99.5906C599.809 105.382 604.667 110.967 609.781 116.78C602.412 118.335 594.568 119.803 586.211 121.868C581.08 115.39 575.935 109.154 570.923 102.934H570.926Z" fill="#1A1A1A"/>
<path fill-rule="evenodd" clip-rule="evenodd" d="M726.074 73.1163C728.349 73.1337 730.505 73.1381 732.544 73.1729C734.933 75.5688 737.396 77.9058 739.699 80.232C737.709 80.1972 735.983 80.5304 733.804 80.6088C731.288 78.0932 728.731 75.584 726.071 73.1141L726.074 73.1163Z" fill="#1A1A1A"/>
<path fill-rule="evenodd" clip-rule="evenodd" d="M726.43 65.674C728.492 65.9244 730.448 66.1139 732.342 66.2686C734.661 68.4466 736.877 70.5397 739.047 72.5958C737.303 72.6067 735.503 72.5849 733.646 72.5109C731.319 70.2936 728.845 67.9544 726.43 65.674Z" fill="#1A1A1A"/>
<path fill-rule="evenodd" clip-rule="evenodd" d="M575.413 48.2778C582.623 48.6546 589.47 48.9857 595.991 49.295C600.011 53.2852 603.99 57.332 608.094 61.1959C601.571 61.2351 595.043 61.1436 588.022 61.0478C583.949 56.7265 579.637 52.5011 575.415 48.2778H575.413Z" fill="#1A1A1A"/>
<path fill-rule="evenodd" clip-rule="evenodd" d="M435.412 214.64C453.761 207.134 470.587 200.498 486.599 194.362C492.837 205.897 499.516 218.292 505.605 231.572C489.886 239.792 473.421 248.138 455.014 257.068C448.791 242.638 442.069 228.342 435.415 214.64H435.412Z" fill="#1A1A1A"/>
<path fill-rule="evenodd" clip-rule="evenodd" d="M539.295 173.745C550.904 169.428 561.955 165.588 572.201 161.809C578.168 170.349 584.249 179.403 590.164 188.557C580.371 193.571 569.585 198.664 558.562 203.815C552.14 193.73 545.73 183.35 539.297 173.747L539.295 173.745Z" fill="#1A1A1A"/>
<path fill-rule="evenodd" clip-rule="evenodd" d="M609.746 149.529C617.768 146.813 625.087 144.332 632.056 141.777C637.109 148.002 642.396 154.765 647.469 161.717C640.832 164.923 633.567 168.325 626.233 171.841C620.931 164.117 615.219 156.549 609.744 149.529H609.746Z" fill="#1A1A1A"/>
<path fill-rule="evenodd" clip-rule="evenodd" d="M636.037 140.542C642.681 138.312 648.904 136.341 654.869 134.54C659.865 140.44 664.715 146.43 669.711 152.387C664.037 154.811 658.255 157.246 652.001 160.275C646.583 153.319 641.392 146.619 636.037 140.542Z" fill="#1A1A1A"/>
<path fill-rule="evenodd" clip-rule="evenodd" d="M657.44 133.884C662.97 132.1 668.336 130.345 673.601 128.561C677.987 133.762 682.375 138.874 686.859 144.177C682.01 146.349 676.889 148.786 671.678 151.134C666.8 145.251 661.984 139.438 657.443 133.882L657.44 133.884Z" fill="#1A1A1A"/>
<path fill-rule="evenodd" clip-rule="evenodd" d="M677.078 127.504C681.797 126.082 686.419 124.714 690.641 123.353C695.05 128.269 699.237 132.843 703.367 137.759C699.408 139.32 695.147 141.091 690.481 143.321C686.08 137.726 681.442 132.483 677.078 127.504Z" fill="#1A1A1A"/>
<path fill-rule="evenodd" clip-rule="evenodd" d="M692.71 122.913C697 121.73 700.843 120.376 704.706 119.265C708.49 123.353 712.349 127.748 715.945 132.006C712.456 133.533 708.869 135.23 704.704 136.644C700.837 132.224 696.731 127.439 692.712 122.913H692.71Z" fill="#1A1A1A"/>
<path fill-rule="evenodd" clip-rule="evenodd" d="M706.761 118.603C710.458 117.607 713.938 116.745 717.224 115.784C720.691 119.568 724.259 123.29 727.551 126.995C724.543 128.138 721.247 129.486 717.974 131.105C714.315 126.816 710.548 122.737 706.761 118.603Z" fill="#1A1A1A"/>
<path fill-rule="evenodd" clip-rule="evenodd" d="M718.738 115.31C721.87 114.447 724.867 113.532 727.735 112.53C730.939 115.983 734.174 119.424 737.195 122.78C734.671 123.991 731.884 125.194 729.023 126.32C725.6 122.695 722.216 118.969 718.735 115.31H718.738Z" fill="#1A1A1A"/>
<path fill-rule="evenodd" clip-rule="evenodd" d="M729.7 112.184C732.473 111.343 734.936 110.396 737.316 109.647C740.263 112.602 743.164 115.632 746.031 118.57C743.92 119.879 741.501 121.062 738.883 122.12C735.796 118.736 732.795 115.473 729.698 112.184H729.7Z" fill="#1A1A1A"/>
<path fill-rule="evenodd" clip-rule="evenodd" d="M739.067 109.503C741.373 108.708 743.665 108.039 745.888 107.427C748.318 109.971 751 112.75 753.465 115.453C751.468 116.277 749.519 117.213 747.379 118.128C744.689 115.303 741.898 112.463 739.067 109.501V109.503Z" fill="#1A1A1A"/>
<path fill-rule="evenodd" clip-rule="evenodd" d="M746.493 106.963C748.411 106.179 750.314 105.454 752.27 104.809C754.593 107.216 757.102 109.908 759.395 112.339C757.666 113.208 755.991 114.133 754.186 115.026C751.662 112.352 749.035 109.721 746.491 106.965L746.493 106.963Z" fill="#1A1A1A"/>
<path fill-rule="evenodd" clip-rule="evenodd" d="M753.162 104.267C754.927 103.609 756.511 103.027 758.147 102.529C760.415 104.774 762.638 106.97 764.816 109.309C763.355 110.012 761.944 110.864 760.468 111.796C758.055 109.322 755.66 106.761 753.164 104.267H753.162Z" fill="#1A1A1A"/>
<path fill-rule="evenodd" clip-rule="evenodd" d="M624.654 96.5434C630.919 95.9031 636.95 95.4174 642.734 94.7836C647.01 99.3901 651.372 104.108 655.723 108.76C650.142 109.697 644.571 110.818 638.315 112.086C633.752 106.804 629.237 101.551 624.654 96.5434Z" fill="#1A1A1A"/>
<path fill-rule="evenodd" clip-rule="evenodd" d="M645.36 94.3653C650.814 93.6792 656.142 93.2153 660.928 92.5771C665.12 96.881 669.265 101.283 673.156 105.593C668.418 106.512 663.529 107.44 658.249 108.285C654.058 103.77 649.639 98.9567 645.36 94.3653Z" fill="#1A1A1A"/>
<path fill-rule="evenodd" clip-rule="evenodd" d="M663.305 92.3137C668.279 91.8345 672.739 91.4098 677.066 90.9938C680.813 94.801 684.744 98.8827 688.484 102.792C684.324 103.576 680.021 104.369 675.491 105.33C671.549 100.882 667.391 96.4912 663.305 92.3137Z" fill="#1A1A1A"/>
<path fill-rule="evenodd" clip-rule="evenodd" d="M679.107 90.7585C683.342 90.3533 687.362 90.1072 691.201 89.7522C694.717 93.3024 698.455 97.2294 701.848 100.723C698.192 101.339 694.36 101.797 690.434 102.415C686.848 98.6713 682.852 94.5897 679.105 90.7585H679.107Z" fill="#1A1A1A"/>
<path fill-rule="evenodd" clip-rule="evenodd" d="M693.077 89.615C696.783 89.2033 700.246 88.7002 703.721 88.563C706.987 91.8148 710.332 95.1995 713.633 98.6975C710.518 99.2354 707.202 99.8518 703.625 100.516C700.184 96.8396 696.536 93.1587 693.077 89.615Z" fill="#1A1A1A"/>
<path fill-rule="evenodd" clip-rule="evenodd" d="M705.334 88.5064C708.572 88.1971 711.558 87.9118 714.587 87.7114C717.774 90.7934 720.977 93.9646 723.746 96.9093C721.091 97.4408 718.247 97.9897 715.106 98.3839C711.91 94.9709 708.729 91.7474 705.336 88.5064H705.334Z" fill="#1A1A1A"/>
<path fill-rule="evenodd" clip-rule="evenodd" d="M715.948 87.609C718.851 87.3128 721.68 87.1233 724.213 86.8489C727.142 89.7021 730.025 92.6447 732.875 95.487C730.488 96.0468 727.752 96.3321 725.182 96.7111C722.176 93.7337 719.199 90.691 715.948 87.6112V87.609Z" fill="#1A1A1A"/>
<path fill-rule="evenodd" clip-rule="evenodd" d="M725.673 86.8947C728.247 86.666 730.645 86.4373 732.917 86.2261C735.407 88.8049 738.029 91.399 740.672 93.9255C738.5 94.2914 736.196 94.8468 734.002 95.3369C731.266 92.4902 728.542 89.7872 725.673 86.8947Z" fill="#1A1A1A"/>
<path fill-rule="evenodd" clip-rule="evenodd" d="M734.309 86.0757C736.51 85.9211 738.476 85.6641 740.491 85.566C742.891 87.8465 745.301 90.2184 747.723 92.6251C745.863 92.9692 744.113 93.3852 742.132 93.7119C739.546 91.1789 736.862 88.5892 734.309 86.0735V86.0757Z" fill="#1A1A1A"/>
<path fill-rule="evenodd" clip-rule="evenodd" d="M741.647 85.3613C743.542 85.1326 745.204 84.9278 746.972 84.7732C749.266 87.0144 751.574 89.1859 753.836 91.5186C752.283 91.8954 750.612 92.1699 748.877 92.6098C746.51 90.1856 744.043 87.7441 741.645 85.3613H741.647Z" fill="#1A1A1A"/>
<path fill-rule="evenodd" clip-rule="evenodd" d="M747.715 84.7318C749.312 84.4683 750.677 84.1307 752.094 83.8628C754.168 85.9385 756.307 88.0425 758.234 89.9918C756.983 90.3643 755.557 90.7237 754.24 91.1636C752.092 89.0139 749.841 86.8315 747.715 84.7318Z" fill="#1A1A1A"/>
<path fill-rule="evenodd" clip-rule="evenodd" d="M752.999 83.6798C754.241 83.4337 755.593 83.3596 756.717 83.0569C758.682 84.9954 760.659 86.9164 762.473 88.7677C761.46 89.1097 760.443 89.4821 759.253 89.8023C757.271 87.8595 755.127 85.847 752.997 83.6798H752.999Z" fill="#1A1A1A"/>
<path fill-rule="evenodd" clip-rule="evenodd" d="M767.124 84.8474C767.507 84.5207 767.829 84.0132 768.102 83.6516C769.408 85.0347 770.714 86.2522 771.803 87.4763C771.823 88.0774 771.613 88.6089 771.348 89.1229C769.918 87.705 768.603 86.3502 767.127 84.8474H767.124Z" fill="#1A1A1A"/>
<path fill-rule="evenodd" clip-rule="evenodd" d="M741.656 73.5563C738.533 72.8942 735.464 72.2299 731.94 71.5329C731.111 71.1104 730.33 70.9165 729.332 70.5441C733.073 71.4588 736.476 72.1841 739.766 72.9617C740.536 73.4823 741.05 73.2427 741.656 73.5563Z" fill="#1A1A1A"/>
<path fill-rule="evenodd" clip-rule="evenodd" d="M720.391 70.0648C715.968 69.6815 711.492 69.6924 706.621 69.4702C705.706 69.3853 704.674 69.309 703.606 68.9845C708.694 69.4702 713.356 69.3613 717.853 69.6314C718.912 70.0256 719.719 69.884 720.391 70.067V70.0648Z" fill="#1A1A1A"/>
<path fill-rule="evenodd" clip-rule="evenodd" d="M631.729 79.2671C637.37 78.9077 642.968 78.7073 648.023 78.3806C652.075 82.4383 656.078 86.5657 659.984 90.7672C654.986 91.2703 649.66 91.756 644.355 92.3724C640.173 87.8508 635.846 83.364 631.731 79.2649L631.729 79.2671Z" fill="#1A1A1A"/>
<path fill-rule="evenodd" clip-rule="evenodd" d="M650.482 78.2391C655.531 78.1585 660.324 78.0562 664.823 77.8623C668.474 81.6129 672.49 85.5399 676.027 89.284C671.771 89.7022 667.146 90.0267 662.371 90.4166C658.504 86.3284 654.428 82.1966 650.482 78.2413V78.2391Z" fill="#1A1A1A"/>
<path fill-rule="evenodd" clip-rule="evenodd" d="M666.993 77.8449C671.451 77.736 675.64 77.7425 679.772 77.6445C683.28 80.9878 686.78 84.5446 690.18 88.2081C686.299 88.4194 682.285 88.7003 678.101 89.1904C674.618 85.4637 670.657 81.5193 666.991 77.8427L666.993 77.8449Z" fill="#1A1A1A"/>
<path fill-rule="evenodd" clip-rule="evenodd" d="M681.695 77.5246C685.63 77.4441 689.299 77.5138 692.86 77.3983C696.226 80.6284 699.501 83.8475 702.684 87.0427C699.33 87.1908 695.822 87.6134 692.064 88.0207C688.638 84.5227 685.14 80.9093 681.695 77.5246Z" fill="#1A1A1A"/>
<path fill-rule="evenodd" clip-rule="evenodd" d="M694.579 77.3178C698.108 77.3853 701.179 77.2198 704.396 77.2503C707.568 80.3148 710.653 83.2638 713.641 86.2652C710.672 86.5331 707.575 86.7858 704.294 86.9905C701.113 83.7387 697.878 80.6633 694.579 77.3178Z" fill="#1A1A1A"/>
<path fill-rule="evenodd" clip-rule="evenodd" d="M705.866 77.1414C709.016 77.1065 711.87 77.0957 714.721 76.9933C717.643 79.816 720.469 82.6061 723.309 85.4528C720.762 85.9451 718 86.0692 715.108 86.2696C712.006 83.1877 709.095 80.2103 705.864 77.1414H705.866Z" fill="#1A1A1A"/>
<path fill-rule="evenodd" clip-rule="evenodd" d="M716.05 77.0259C718.71 77.0259 721.414 77.1457 723.72 77.0825C726.388 79.5807 729.123 82.2554 731.824 84.8168C729.503 84.954 727.115 85.1478 724.593 85.4462C721.865 82.6169 718.918 79.8443 716.05 77.0259Z" fill="#1A1A1A"/>
<path fill-rule="evenodd" clip-rule="evenodd" d="M617.594 64.2168C623.529 64.28 629.256 64.3649 634.606 64.4978C638.511 68.4139 642.404 72.1798 646.25 76.0632C640.987 76.2396 635.451 76.5032 629.892 76.7428C625.725 72.5304 621.545 68.2593 617.594 64.219V64.2168Z" fill="#1A1A1A"/>
<path fill-rule="evenodd" clip-rule="evenodd" d="M637.103 64.6742C642.327 64.6916 647.382 64.9203 652.085 65.0749C655.782 68.6709 659.505 72.2669 663.09 75.8389C658.516 75.7931 653.614 75.8672 648.675 76.0959C644.899 72.1231 641.04 68.4008 637.103 64.6742Z" fill="#1A1A1A"/>
<path fill-rule="evenodd" clip-rule="evenodd" d="M654.464 65.1141C659.095 65.2056 663.579 65.3886 667.814 65.5781C671.189 68.8255 674.626 72.1754 678.066 75.6973C674.009 75.7256 669.754 75.8062 665.366 75.8737C661.79 72.2494 658.067 68.586 654.466 65.1141H654.464Z" fill="#1A1A1A"/>
<path fill-rule="evenodd" clip-rule="evenodd" d="M669.759 65.5999C673.972 65.8394 677.61 65.9135 681.453 66.1313C684.866 69.3047 687.963 72.3518 691.242 75.5231C687.58 75.5405 683.855 75.5013 679.865 75.5797C676.641 72.2081 673.198 68.8582 669.759 65.5999Z" fill="#1A1A1A"/>
<path fill-rule="evenodd" clip-rule="evenodd" d="M683.424 66.2969C686.924 66.3644 690.352 66.4624 693.762 66.6628C696.921 69.7099 699.944 72.6023 702.875 75.4491C699.819 75.6037 696.531 75.6255 692.953 75.5471C689.787 72.3628 686.62 69.3788 683.424 66.2969Z" fill="#1A1A1A"/>
<path fill-rule="evenodd" clip-rule="evenodd" d="M695.438 66.715C698.774 66.9437 701.707 67.07 704.522 67.1832C707.504 69.9319 710.553 72.7046 713.285 75.3923C710.498 75.4381 707.585 75.5295 704.389 75.4489C701.455 72.6131 698.485 69.7272 695.438 66.715Z" fill="#1A1A1A"/>
<path fill-rule="evenodd" clip-rule="evenodd" d="M706.275 67.5144C709.242 67.7605 711.866 67.8977 714.542 68.0567C717.269 70.6399 720.122 73.3037 722.758 75.9696C720.24 75.7758 717.591 75.7409 714.826 75.6276C712.085 73.0488 709.36 70.4722 706.275 67.5166V67.5144Z" fill="#1A1A1A"/>
<path fill-rule="evenodd" clip-rule="evenodd" d="M624.528 52.1134C629.959 52.4227 635.1 52.634 640.07 53.0391C643.753 56.5545 647.31 59.9566 650.906 63.6201C646.002 63.289 641.098 63.2541 635.782 63.0995C632.171 59.4295 628.4 55.766 624.53 52.1134H624.528Z" fill="#1A1A1A"/>
<path fill-rule="evenodd" clip-rule="evenodd" d="M642.557 53.3896C647.422 53.6118 651.893 54.03 656.403 54.5048C659.831 57.6608 663.151 60.8778 666.551 64.1536C662.169 63.7877 657.904 63.7768 653.166 63.6287C649.596 60.1351 646.008 56.5805 642.557 53.3896Z" fill="#1A1A1A"/>
<path fill-rule="evenodd" clip-rule="evenodd" d="M658.483 54.6813C662.766 55.0123 666.736 55.4349 670.757 55.8705C674.012 58.8196 677.155 61.8906 680.43 64.9704C676.554 64.5762 672.747 64.4956 668.491 64.1819C665.299 61.0956 661.906 57.9113 658.483 54.6813Z" fill="#1A1A1A"/>
<path fill-rule="evenodd" clip-rule="evenodd" d="M672.717 56.0121C676.506 56.3497 680.074 56.5544 683.615 56.892C686.673 59.7496 689.642 62.5746 692.676 65.4714C689.268 65.2949 685.906 65.1446 682.132 64.9748C678.908 61.9342 675.92 58.9786 672.717 56.0121Z" fill="#1A1A1A"/>
<path fill-rule="evenodd" clip-rule="evenodd" d="M685.375 57.1055C688.573 57.3167 691.758 57.6195 695.035 58.0834C697.911 60.7123 700.792 63.4523 703.59 66.0747C700.611 65.9309 697.522 65.6347 694.346 65.5541C691.25 62.6551 688.273 59.9064 685.375 57.1055Z" fill="#1A1A1A"/>
<path fill-rule="evenodd" clip-rule="evenodd" d="M704.823 60.1285C707.636 60.477 710.331 60.7972 712.805 61.015C715.347 63.3521 718.06 65.8285 720.676 68.2875C718.189 68.0654 715.627 68.0065 713.072 67.8476C710.476 65.2971 707.669 62.7204 704.823 60.1307V60.1285Z" fill="#1A1A1A"/>
<path fill-rule="evenodd" clip-rule="evenodd" d="M714.324 61.1458C716.734 61.357 719.033 61.5117 721.265 61.7926C723.601 64.0447 725.957 66.1487 728.203 68.3486C726.23 68.3203 723.977 68.1591 721.827 68.0916C719.425 65.8503 716.82 63.4087 714.324 61.1458Z" fill="#1A1A1A"/>
<path fill-rule="evenodd" clip-rule="evenodd" d="M630.4 42.1444C635.287 42.7216 639.999 43.277 644.748 43.8433C648.112 46.9753 651.395 50.0115 654.852 53.1959C650.192 52.5904 645.82 52.3268 640.834 51.7888C637.429 48.4913 633.889 45.3854 630.4 42.1444Z" fill="#1A1A1A"/>
<path fill-rule="evenodd" clip-rule="evenodd" d="M646.934 44.072C651.285 44.5468 655.655 45.1632 659.809 45.6838C662.891 48.5936 666.103 51.5318 669.32 54.5441C665.252 54.0932 661.323 53.7774 656.933 53.4115C653.483 50.1771 650.189 47.1692 646.934 44.0698V44.072Z" fill="#1A1A1A"/>
<path fill-rule="evenodd" clip-rule="evenodd" d="M661.795 45.9167C665.658 46.3567 669.447 46.8773 673.332 47.461C676.292 50.2402 679.12 52.7841 682.211 55.6309C678.674 55.2933 675.062 55.0079 671.263 54.7553C668.106 51.7256 664.843 48.7177 661.795 45.9167Z" fill="#1A1A1A"/>
<path fill-rule="evenodd" clip-rule="evenodd" d="M675.025 47.7246C678.455 48.2495 681.883 48.7026 685.138 49.1425C687.966 51.7388 690.923 54.3437 693.734 56.9007C690.506 56.5697 687.327 56.2212 683.976 55.8422C680.877 53.0347 677.943 50.3775 675.025 47.7246Z" fill="#1A1A1A"/>
<path fill-rule="evenodd" clip-rule="evenodd" d="M695.626 51.3772C698.577 51.852 701.309 52.1787 703.875 52.5098C706.526 54.9383 709.201 57.3298 711.715 59.7758C709.191 59.5122 706.607 59.2509 703.742 58.8849C701.075 56.4041 698.42 53.9691 695.626 51.3794V51.3772Z" fill="#1A1A1A"/>
<path fill-rule="evenodd" clip-rule="evenodd" d="M705.78 53.2394C708.392 53.5879 710.72 53.9538 713.093 54.3937C715.561 56.5936 717.982 58.7716 720.574 61.1152C718.347 60.8233 715.939 60.6404 713.531 60.44C711.008 58.0267 708.445 55.6374 705.778 53.2372L705.78 53.2394Z" fill="#1A1A1A"/>
<path fill-rule="evenodd" clip-rule="evenodd" d="M619.918 30.5724C625.069 31.3804 629.934 32.1014 634.611 32.9094C637.971 35.706 641.158 38.5811 644.605 41.7305C639.892 41.0096 635.132 40.4956 630.269 39.8661C626.802 36.66 623.378 33.6173 619.92 30.5702L619.918 30.5724Z" fill="#1A1A1A"/>
<path fill-rule="evenodd" clip-rule="evenodd" d="M636.832 33.1425C641.437 33.9353 645.834 34.5538 650.147 35.3009C653.135 38.0736 656.266 40.7482 659.438 43.6537C655.253 43.0482 650.933 42.5168 646.564 41.8525C643.364 38.9426 640.166 36.1068 636.832 33.1425Z" fill="#1A1A1A"/>
<path fill-rule="evenodd" clip-rule="evenodd" d="M624.903 22.8381C629.586 23.6636 634.075 24.5697 638.463 25.3886C641.62 28.1831 644.706 30.8643 647.797 33.5541C643.656 32.8441 639.161 32.158 634.445 31.3565C631.33 28.5838 628.079 25.7175 624.901 22.8381H624.903Z" fill="#1A1A1A"/>
<path fill-rule="evenodd" clip-rule="evenodd" d="M573.965 25.772C580.702 26.702 586.976 27.5667 592.943 28.1874C596.913 31.6092 600.549 35.1202 604.066 38.4134C598.274 37.9277 592.105 37.2307 585.565 36.5272C581.844 32.9748 577.974 29.3745 573.967 25.7741L573.965 25.772Z" fill="#1A1A1A"/>
<path fill-rule="evenodd" clip-rule="evenodd" d="M755.775 92.1633C757.206 91.7691 758.516 91.3509 759.767 91.0133C761.71 92.9343 763.718 94.8946 765.621 97.0509C764.654 97.554 763.515 98.1595 762.311 98.7084C760.233 96.6109 757.998 94.3174 755.775 92.1633Z" fill="#1A1A1A"/>
<path fill-rule="evenodd" clip-rule="evenodd" d="M750.416 93.5181C752.094 93.1239 753.65 92.6948 755.144 92.3071C757.425 94.6159 759.604 96.8353 761.68 98.9436C760.472 99.6058 759.142 100.224 757.69 100.858C755.327 98.4057 752.864 95.8966 750.416 93.5181Z" fill="#1A1A1A"/>
<path fill-rule="evenodd" clip-rule="evenodd" d="M744.19 94.9317C746.115 94.5897 747.865 94.1149 749.551 93.6335C752.111 96.2232 754.574 98.6757 756.875 101.072C755.3 101.581 753.716 102.18 751.837 102.655C749.311 100.072 746.684 97.4756 744.188 94.9317H744.19Z" fill="#1A1A1A"/>
<path fill-rule="evenodd" clip-rule="evenodd" d="M736.239 96.5195C738.49 96.0338 740.675 95.5198 742.845 95.1757C745.398 97.7087 748.073 100.549 750.656 103.23C748.703 103.762 746.798 104.539 744.827 105.31C742.022 102.291 739.061 99.4229 736.239 96.5173V96.5195Z" fill="#1A1A1A"/>
<path fill-rule="evenodd" clip-rule="evenodd" d="M727.6 97.9483C730.231 97.5541 732.849 97.1599 735.054 96.6567C737.933 99.5143 740.893 102.42 743.754 105.415C741.529 106.14 739.182 106.769 736.758 107.456C733.858 104.345 730.804 101.202 727.6 97.9483Z" fill="#1A1A1A"/>
<path fill-rule="evenodd" clip-rule="evenodd" d="M717.749 99.8302C720.778 99.3619 723.561 98.8348 726.216 98.275C729.532 101.642 732.639 104.877 735.539 107.941C733.102 108.638 730.464 109.507 727.756 110.324C724.355 106.728 721.209 103.424 717.749 99.828V99.8302Z" fill="#1A1A1A"/>
<path fill-rule="evenodd" clip-rule="evenodd" d="M706.623 102.167C710.068 101.579 713.268 100.915 716.39 100.281C719.728 103.831 723.048 107.249 726.391 110.781C723.529 111.714 720.474 112.622 717.343 113.537C713.804 109.677 710.118 105.809 706.623 102.167Z" fill="#1A1A1A"/>
<path fill-rule="evenodd" clip-rule="evenodd" d="M692.553 104.208C696.508 103.42 700.294 102.829 703.816 102.315C707.43 105.918 711.096 109.86 714.688 113.709C711.356 114.504 707.76 115.36 704.172 116.545C700.222 112.206 696.462 108.176 692.55 104.208H692.553Z" fill="#1A1A1A"/>
<path fill-rule="evenodd" clip-rule="evenodd" d="M678.083 106.769C682.539 105.9 686.927 104.918 690.777 104.158C694.723 108.303 698.717 112.389 702.488 116.625C698.689 117.786 694.668 119.054 690.28 120.09C686.26 115.619 682.206 111.28 678.083 106.772V106.769Z" fill="#1A1A1A"/>
<path fill-rule="evenodd" clip-rule="evenodd" d="M660.884 109.84C666.044 108.943 671.163 108.166 675.584 106.891C679.746 111.483 684.001 116.113 687.949 120.622C683.561 121.892 678.952 123.183 674.072 124.412C669.61 119.404 665.338 114.665 660.882 109.84H660.884Z" fill="#1A1A1A"/>
<path fill-rule="evenodd" clip-rule="evenodd" d="M641.396 113.961C647.459 112.709 653.035 111.589 658.276 110.4C662.776 115.344 667.321 120.284 671.762 125.435C666.293 126.949 661.249 128.837 655.461 130.316C650.679 124.817 645.952 119.341 641.396 113.961Z" fill="#1A1A1A"/>
<path fill-rule="evenodd" clip-rule="evenodd" d="M618.868 119.117C625.96 117.727 632.244 116.414 638.581 115.035C643.311 120.465 648.029 125.993 652.754 131.397C646.837 133.353 640.57 135.267 633.994 137.227C628.793 130.887 623.849 124.926 618.868 119.117Z" fill="#1A1A1A"/>
<path fill-rule="evenodd" clip-rule="evenodd" d="M384.426 87.7288C388.891 84.1612 393.261 80.5609 397.256 77.2742C403.709 80.9268 410.133 84.3289 416.621 88.1862C413.001 91.9651 409.416 95.927 405.082 99.9804C398.087 95.8464 391.096 91.7364 384.428 87.7288H384.426Z" fill="#1A1A1A"/>
<path fill-rule="evenodd" clip-rule="evenodd" d="M603.428 80.4062C605.204 78.618 606.939 76.954 608.744 75.5295C611.257 77.2894 613.875 79.1647 616.461 80.9485C614.855 82.6409 613.339 84.4596 611.71 86.5048C608.927 84.4247 606.151 82.3599 603.426 80.4062H603.428Z" fill="#1A1A1A"/>
<path fill-rule="evenodd" clip-rule="evenodd" d="M673.718 14.3438C674.409 13.2896 675.044 12.1918 675.628 11.0919C677.89 12.9629 680.305 14.9885 682.676 16.9618C682.306 18.2272 681.783 19.3838 681.193 20.6231C678.712 18.5387 676.19 16.4194 673.72 14.3438H673.718Z" fill="#1A1A1A"/>
<path fill-rule="evenodd" clip-rule="evenodd" d="M306.527 197.222C312.107 192.855 317.37 188.671 322.482 184.988C329.138 187.035 335.67 189.459 342.523 191.772C337.554 195.797 332.662 200.147 327.636 204.834C320.487 202.146 313.174 199.724 306.525 197.219L306.527 197.222Z" fill="#1A1A1A"/>
<path fill-rule="evenodd" clip-rule="evenodd" d="M657.788 28.5098C658.337 27.9064 658.77 27.3184 659.201 26.7521C660.671 27.8193 662.15 28.867 663.578 29.9124C663.248 30.5593 662.907 31.3194 662.524 31.9554C660.942 30.812 659.42 29.6772 657.788 28.5076V28.5098Z" fill="#1A1A1A"/>
<path fill-rule="evenodd" clip-rule="evenodd" d="M607.138 0.907348C608.464 0.343232 609.719 -0.155543 610.962 -0.615112C612.836 0.659048 614.709 1.97677 616.625 3.36637C615.579 3.99582 614.431 4.55559 613.125 5.2787C611.174 3.75624 609.155 2.33397 607.138 0.909525V0.907348Z" fill="#1A1A1A"/>
<path fill-rule="evenodd" clip-rule="evenodd" d="M325.205 52.5947C330.46 50.4341 335.344 48.5479 339.986 46.7706C345.988 49.258 351.671 51.6408 357.109 54.1673C352.916 56.2604 348.5 58.4036 343.558 61.0391C337.214 58.0834 331.05 55.1518 325.205 52.5947Z" fill="#1A1A1A"/>
<path fill-rule="evenodd" clip-rule="evenodd" d="M628.624 -2.45994C629.424 -2.83675 630.024 -3.33117 630.658 -3.70361C632.185 -2.70607 633.639 -1.58001 635.109 -0.493163C634.571 -0.0161694 634.075 0.547946 633.425 0.983556C631.962 -0.133785 630.295 -1.31647 628.624 -2.45994Z" fill="#1A1A1A"/>
<path fill-rule="evenodd" clip-rule="evenodd" d="M742.676 73.1795C742.855 72.7221 743.091 72.2647 743.214 71.8247C744.093 72.4258 744.914 73.1119 745.793 73.7392C745.725 74.2707 745.603 74.7738 745.48 75.2769C744.489 74.5734 743.608 73.8764 742.676 73.1795Z" fill="#1A1A1A"/>
<path fill-rule="evenodd" clip-rule="evenodd" d="M302.491 123.497C306.232 121.709 309.259 120.021 312.453 118.405C317.143 119.731 321.634 120.931 326.109 122.229C323.364 123.887 320.256 125.819 316.966 127.648C312.064 126.315 307.262 124.865 302.491 123.497Z" fill="#1A1A1A"/>
<path fill-rule="evenodd" clip-rule="evenodd" d="M646.874 -1.11609C647.63 -1.35568 648.376 -1.52556 649.074 -1.73901C650.249 -0.893929 651.579 0.0339199 652.812 0.870292C652.11 1.11859 651.463 1.34946 650.756 1.60212C649.426 0.678624 648.199 -0.190418 646.871 -1.11609H646.874Z" fill="#1A1A1A"/>
<path fill-rule="evenodd" clip-rule="evenodd" d="M774.533 96.4977C774.747 96.1492 774.907 95.8747 775.123 95.5262C775.817 96.0011 776.508 96.4802 777.145 96.9267C776.989 97.2861 776.889 97.6237 776.672 97.9156C775.976 97.4647 775.224 96.979 774.533 96.4977Z" fill="#1A1A1A"/>
<path fill-rule="evenodd" clip-rule="evenodd" d="M664.707 18.3166C665.464 18.0683 666.173 17.7829 666.868 17.6C667.975 18.3514 669.191 19.1573 670.359 19.9065C669.657 20.1548 668.955 20.4162 668.301 20.7124C667.139 19.9218 665.921 19.1268 664.707 18.3166Z" fill="#1A1A1A"/>
<path fill-rule="evenodd" clip-rule="evenodd" d="M546.956 28.7102C548.599 28.2811 550.174 27.8434 551.687 27.4382C553.68 28.512 555.621 29.5335 557.723 30.6574C556.167 31.0124 554.641 31.4981 553.116 31.949C551.134 30.8425 548.964 29.7448 546.956 28.7102Z" fill="#1A1A1A"/>
<path fill-rule="evenodd" clip-rule="evenodd" d="M683.035 35.325C683.737 35.0788 684.446 34.7543 685.091 34.4951C686.178 35.2204 687.158 35.8847 688.195 36.5926C687.605 36.867 687.01 37.1763 686.358 37.5074C685.268 36.7538 684.175 36.096 683.035 35.3228V35.325Z" fill="#1A1A1A"/>
<path fill-rule="evenodd" clip-rule="evenodd" d="M674.123 6.49401C674.737 6.33501 675.339 6.27403 675.949 6.16077C676.844 6.77062 677.782 7.45235 678.684 8.02518C678.18 8.13408 677.568 8.2909 677.056 8.46514C676.063 7.77906 675.12 7.11693 674.123 6.49619V6.49401Z" fill="#1A1A1A"/>
<path fill-rule="evenodd" clip-rule="evenodd" d="M223 163.628C227.992 162.125 233.27 160.341 238.605 158.792C243.547 159.851 248.884 160.604 253.902 161.53C249.105 162.998 243.91 164.719 239.111 166.424C233.504 165.481 228.318 164.612 223 163.63V163.628Z" fill="#1A1A1A"/>
<path fill-rule="evenodd" clip-rule="evenodd" d="M766.143 93.3199C766.48 93.0695 766.817 92.8103 767.038 92.5707C767.666 92.9714 768.353 93.4288 768.926 93.7947C768.705 94.0626 768.427 94.2913 768.149 94.5788C767.462 94.1149 766.83 93.7272 766.143 93.3221V93.3199Z" fill="#1A1A1A"/>
<path fill-rule="evenodd" clip-rule="evenodd" d="M469.532 66.6236C472.017 66.0181 474.679 65.6565 477.215 65.1077C479.713 65.9767 481.985 66.7368 484.219 67.6298C481.918 68.0524 479.426 68.647 476.825 69.2416C474.395 68.3442 471.899 67.4817 469.534 66.6236H469.532Z" fill="#1A1A1A"/>
<path fill-rule="evenodd" clip-rule="evenodd" d="M478.016 111.748C480.258 110.348 482.476 108.954 484.707 107.741C487.831 108.941 491.016 110.352 494.223 111.713C492.147 113.097 490.084 114.445 487.999 116.017C484.524 114.44 481.231 113.118 478.016 111.746V111.748Z" fill="#1A1A1A"/>
<path fill-rule="evenodd" clip-rule="evenodd" d="M773.224 104.739C773.439 104.123 773.594 103.494 773.752 102.956C774.629 103.585 775.567 104.282 776.508 105.007C776.414 105.637 776.318 106.351 776.169 106.996C775.224 106.253 774.224 105.497 773.224 104.737V104.739Z" fill="#1A1A1A"/>
<path fill-rule="evenodd" clip-rule="evenodd" d="M532.305 56.0251C534.326 54.8707 536.19 53.8405 537.92 52.8364C540.58 54.311 543.352 55.877 546.121 57.4713C544.38 58.5407 542.825 59.8258 540.884 60.9301C537.94 59.2769 535.129 57.6325 532.305 56.0251Z" fill="#1A1A1A"/>
</g>
<g clip-path="url(#clip2_286_125)">
<path fill-rule="evenodd" clip-rule="evenodd" d="M41.6062 200.082C38.8966 195.577 36.6862 190.623 34.5177 186.204C33.3642 187.984 30.0587 207.461 25.4922 238H35.3724C38.3645 215.582 40.5894 201.681 41.6062 200.082Z" fill="#1A1A1A"/>
<path fill-rule="evenodd" clip-rule="evenodd" d="M33.1471 187.161C30.9567 182.979 28.9213 178.997 26.8622 175.971C25.7415 177.594 21.7417 201.467 16.2422 238H25.173C29.1691 208.013 32.0738 188.878 33.1471 187.161Z" fill="#1A1A1A"/>
<path fill-rule="evenodd" clip-rule="evenodd" d="M25.8776 174.757C24.0316 172.126 22.2695 169.629 20.5293 167.254C18.4684 179.172 16.3819 190.933 14.3793 202.622C12.342 214.491 10.3321 226.301 8.375 237.975L8.5062 237.998H16.535C19.5271 217.226 22.7051 196.074 25.8776 174.755V174.757Z" fill="#1A1A1A"/>
<path fill-rule="evenodd" clip-rule="evenodd" d="M19.8041 166.018C18.2624 163.558 16.7919 161.37 15.3924 159.309C12.7393 172.393 10.0897 185.334 7.53859 198.026C4.96377 210.848 2.43633 223.522 0 235.95V236.459C2.31424 236.896 4.69226 237.329 7.13405 237.725C9.12576 225.958 11.2323 214.007 13.357 201.953C15.4453 190.101 17.6684 178.136 19.8041 166.018Z" fill="#1A1A1A"/>
<path fill-rule="evenodd" clip-rule="evenodd" d="M14.6963 158.395C13.377 156.425 12.3384 154.436 11.42 152.324C8.19095 166.393 4.92368 180.338 1.90059 194.064L0 202.694V230.503C2.15753 219.646 4.39706 208.632 6.66027 197.504C9.26971 184.659 11.9684 171.57 14.6982 158.397L14.6963 158.395Z" fill="#1A1A1A"/>
<path fill-rule="evenodd" clip-rule="evenodd" d="M10.7475 151.527C9.62869 149.758 8.62464 148.077 7.73904 146.227C5.13871 156.769 2.54566 167.221 0 177.57V198.447L1.09334 193.6C4.19661 179.83 7.44201 165.753 10.7475 151.529V151.527Z" fill="#1A1A1A"/>
<path fill-rule="evenodd" clip-rule="evenodd" d="M7.24339 145.456C6.35778 143.995 5.7528 142.278 5.15146 140.571C3.41487 147.075 1.69832 153.541 0 159.963V174.57C2.39806 164.97 4.83257 155.259 7.24339 145.458V145.456Z" fill="#1A1A1A"/>
<path fill-rule="evenodd" clip-rule="evenodd" d="M4.50457 140.112C3.90505 138.628 3.36385 137.105 2.97936 135.635L0 146.236V157.03C1.48694 151.422 2.98847 145.779 4.50457 140.112Z" fill="#1A1A1A"/>
<path fill-rule="evenodd" clip-rule="evenodd" d="M2.73518 134.469C2.25411 133.037 1.87326 131.667 1.54161 130.44L0 135.706V144.175L2.73518 134.469Z" fill="#1A1A1A"/>
<path fill-rule="evenodd" clip-rule="evenodd" d="M1.43592 129.675C1.15894 128.377 1.03503 127.072 0.860095 125.812L0 128.667V134.547L1.43592 129.675Z" fill="#1A1A1A"/>
<path fill-rule="evenodd" clip-rule="evenodd" d="M0.789028 125.335C0.666938 124.093 0.748939 122.699 0.876495 121.376L0 124.202V127.942L0.789028 125.335Z" fill="#1A1A1A"/>
<path fill-rule="evenodd" clip-rule="evenodd" d="M0.927518 120.468C0.940274 119.417 1.16076 118.189 1.38125 116.89L0 121.324V123.446L0.927518 120.468Z" fill="#1A1A1A"/>
<path fill-rule="evenodd" clip-rule="evenodd" d="M1.4013 116.558C1.60903 115.45 1.9589 114.385 2.36162 113.176L0 120.778V121.03L1.40312 116.558H1.4013Z" fill="#1A1A1A"/>
<path fill-rule="evenodd" clip-rule="evenodd" d="M2.59304 112.461C3.0814 111.41 3.62078 110.259 3.99799 109.36C2.66958 113.665 1.33388 117.97 0 122.266V120.802C0.871029 118.023 1.73841 115.246 2.59304 112.461Z" fill="#1A1A1A"/>
<path fill-rule="evenodd" clip-rule="evenodd" d="M4.41528 108.675C4.98746 107.676 5.74915 106.552 6.5072 105.491C4.3351 112.599 2.15753 119.703 0 126.787V122.98C1.47601 118.213 2.95384 113.437 4.41346 108.675H4.41528Z" fill="#1A1A1A"/>
<path fill-rule="evenodd" clip-rule="evenodd" d="M117.662 238C112.408 232.895 107.415 228.146 102.677 223.299C99.7618 228.09 96.7132 233.033 93.6719 238H117.662Z" fill="#1A1A1A"/>
<path fill-rule="evenodd" clip-rule="evenodd" d="M99.9729 220.85C94.5499 215.151 89.5187 210.427 84.7846 206.064C79.4363 213.434 74.4798 220.589 69.25 228.52C71.5879 231.384 73.9751 234.599 76.4733 238.002H89.2509C92.8516 232.116 96.4232 226.426 99.9729 220.85Z" fill="#1A1A1A"/>
<path fill-rule="evenodd" clip-rule="evenodd" d="M82.5688 203.727C77.8784 199.54 73.7474 195.559 69.7366 191.729C65.048 198.014 60.2373 204.717 55.5469 211.33C59.1276 215.907 63.08 220.587 67.1454 225.759C72.3133 218.285 77.2625 211.04 82.5688 203.727Z" fill="#1A1A1A"/>
<path fill-rule="evenodd" clip-rule="evenodd" d="M67.7918 189.967C64.0926 186.728 60.5466 183.439 57.2265 180.385C53.0699 185.89 48.7585 191.238 44.3906 196.942C47.4319 200.696 50.5334 204.659 53.8389 209.116C58.4947 202.698 63.2016 196.076 67.7936 189.967H67.7918Z" fill="#1A1A1A"/>
<path fill-rule="evenodd" clip-rule="evenodd" d="M45.7039 169.148C43.1583 166.627 40.6527 164.377 38.2328 162.202C34.8015 166.264 31.0531 170.732 27.6328 175.052C29.5717 177.659 31.8221 180.443 34.0653 183.615C37.9612 178.514 41.7661 174.066 45.7039 169.148Z" fill="#1A1A1A"/>
<path fill-rule="evenodd" clip-rule="evenodd" d="M36.8239 161.455C34.6609 159.338 32.4724 157.416 30.57 155.27C27.5013 158.89 24.2833 162.621 21.293 166.241C22.9239 168.686 24.7425 171.137 26.6412 173.749C29.9595 169.681 33.4965 165.438 36.8239 161.455Z" fill="#1A1A1A"/>
<path fill-rule="evenodd" clip-rule="evenodd" d="M29.1947 154.034C27.4363 152.089 25.7507 150.318 24.1362 148.558C21.3318 151.75 18.4399 155.123 15.7812 158.268C17.0696 160.286 18.5911 162.331 20.1856 164.582C23.1741 161 26.3356 157.413 29.1966 154.034H29.1947Z" fill="#1A1A1A"/>
<path fill-rule="evenodd" clip-rule="evenodd" d="M23.1222 147.577C21.586 146.069 20.2193 144.499 18.7597 143.043C16.3307 145.779 13.7686 148.581 11.3359 151.317C12.36 153.287 13.5572 155.223 14.6579 157.306C17.4787 154.137 20.4216 150.778 23.1222 147.577Z" fill="#1A1A1A"/>
<path fill-rule="evenodd" clip-rule="evenodd" d="M18.1923 142.282C16.9076 140.897 15.7377 139.289 14.73 137.857C12.4686 140.297 10.3421 142.701 7.92578 145.298C8.9189 147.05 9.92295 148.704 10.9853 150.503C13.3597 147.853 15.8142 145.103 18.1941 142.282H18.1923Z" fill="#1A1A1A"/>
<path fill-rule="evenodd" clip-rule="evenodd" d="M14.0808 136.73C12.9874 135.455 12.049 134.246 11.0686 132.999C8.97121 135.274 6.90115 137.614 5.08984 139.608C5.693 141.184 6.51301 142.663 7.17813 144.356C9.43223 141.814 11.7702 139.199 14.0826 136.73H14.0808Z" fill="#1A1A1A"/>
<path fill-rule="evenodd" clip-rule="evenodd" d="M10.6762 132.606C9.80696 131.364 9.09811 130.017 8.33824 128.928C6.66907 130.665 4.9835 132.586 3.33984 134.442C3.8282 135.883 4.26554 137.415 4.86323 138.9C6.78023 136.788 8.68811 134.674 10.6762 132.606Z" fill="#1A1A1A"/>
<path fill-rule="evenodd" clip-rule="evenodd" d="M8.01676 128.19C7.26418 127.148 6.81591 125.944 6.37128 124.826C4.9226 126.339 3.41197 127.924 1.99609 129.47C2.27307 130.793 2.70494 132.097 2.97828 133.657C4.61829 131.883 6.40773 129.885 8.01858 128.19H8.01676Z" fill="#1A1A1A"/>
<path fill-rule="evenodd" clip-rule="evenodd" d="M6.04402 124.342C5.70508 123.176 5.31148 122.196 4.97255 121.097C3.68605 122.438 2.54168 123.753 1.19141 125.17C1.36999 126.374 1.54492 127.672 1.8219 128.924C3.29062 127.307 4.69921 125.776 6.04402 124.344V124.342Z" fill="#1A1A1A"/>
<path fill-rule="evenodd" clip-rule="evenodd" d="M4.81323 120.312C4.62372 119.237 4.38319 118.285 4.34492 117.149C3.16775 118.423 2.14001 119.538 1.16147 120.575C1.03392 121.916 1.06489 123.091 1.13596 124.405C2.28033 123.158 3.62696 121.646 4.81323 120.314V120.312Z" fill="#1A1A1A"/>
<path fill-rule="evenodd" clip-rule="evenodd" d="M22.1507 90.7706C23.6377 89.9712 25.0335 89.2189 26.5642 88.6062C26.5624 88.8255 26.6079 88.9579 26.7464 88.9434C25.121 89.7047 23.399 90.7126 22.0469 91.4358C22.0523 91.1404 22.0523 91.0552 22.1507 90.7706Z" fill="#1A1A1A"/>
<path fill-rule="evenodd" clip-rule="evenodd" d="M4.16285 113.29C4.3633 112.267 4.50908 111.287 4.74597 110.426C4.14463 111.02 3.3392 111.89 2.67955 112.637C2.32604 113.794 1.97617 114.925 1.61719 116.096C2.58662 115.068 3.30276 114.245 4.16103 113.29H4.16285Z" fill="#1A1A1A"/>
<path fill-rule="evenodd" clip-rule="evenodd" d="M5.02393 109.65C5.35922 108.704 5.73642 107.743 6.11363 106.818C5.51411 107.509 5.0622 108.107 4.46086 108.774C3.83401 109.884 3.34747 110.939 2.85547 112.101C3.61899 111.201 4.22397 110.502 5.02575 109.65H5.02393Z" fill="#1A1A1A"/>
<path fill-rule="evenodd" clip-rule="evenodd" d="M12.1272 98.4601C12.9946 97.5555 13.9039 96.7235 14.8569 95.9767C14.6146 96.3138 14.3704 96.6673 14.1754 96.9519C13.1222 97.8891 12.1163 98.7592 11.1523 99.6547C11.4931 99.2794 11.6899 98.9985 12.1272 98.4601Z" fill="#1A1A1A"/>
<path fill-rule="evenodd" clip-rule="evenodd" d="M171.669 229.556C162.49 223.377 154.543 217.524 146.25 212.144C141.305 220.536 136.164 228.833 130.973 238.002H167.151C168.644 235.156 170.149 232.341 171.669 229.556Z" fill="#1A1A1A"/>
<path fill-rule="evenodd" clip-rule="evenodd" d="M142.533 209.76C135.239 204.617 128.416 199.692 122.102 195.179C116.807 203.062 111.562 210.916 106.34 219.257C112.47 224.932 118.744 231.251 125.914 237.387C131.412 227.724 137.127 218.704 142.533 209.76Z" fill="#1A1A1A"/>
<path fill-rule="evenodd" clip-rule="evenodd" d="M119.081 193.074C113.031 189.572 107.678 185.709 102.472 182.113C97.6682 188.544 92.7063 195.287 87.9102 202.322C92.7937 206.899 97.8031 211.571 103.417 216.929C108.767 208.536 113.768 200.629 119.081 193.074Z" fill="#1A1A1A"/>
<path fill-rule="evenodd" clip-rule="evenodd" d="M100.102 180.2C95.0872 176.97 90.5152 173.696 86.1108 170.946C81.7028 176.451 77.0124 182.693 72.5352 189.059C76.6352 192.661 81.0049 196.175 85.7209 200.211C90.3366 193.489 95.2657 186.809 100.102 180.2Z" fill="#1A1A1A"/>
<path fill-rule="evenodd" clip-rule="evenodd" d="M84.0097 169.605C79.8149 167.116 76.0247 164.466 72.2654 162.302C68.0852 167.216 64.0781 172.326 59.8086 177.817C63.1652 180.742 66.8588 183.726 70.5653 187.041C74.9969 181.228 79.5908 175.07 84.0097 169.605Z" fill="#1A1A1A"/>
<path fill-rule="evenodd" clip-rule="evenodd" d="M34.0171 85.8038C33.0422 85.7041 32.1602 85.5989 31.373 85.4467C29.7585 87.0364 28.277 88.5192 26.6953 90.0273C27.4843 90.1361 28.2278 90.3935 29.066 90.5893C30.6951 89.0521 32.2677 87.4533 34.0171 85.8038Z" fill="#1A1A1A"/>
<path fill-rule="evenodd" clip-rule="evenodd" d="M59.1206 153.434C56.1522 151.659 53.4644 149.779 50.7018 148.054C47.2797 152.121 43.7555 156.209 40.2969 160.366C42.7624 162.35 45.319 164.547 48.0705 166.755C51.7132 162.274 55.3668 157.891 59.1206 153.434Z" fill="#1A1A1A"/>
<path fill-rule="evenodd" clip-rule="evenodd" d="M49.1614 147.501C46.6995 145.773 44.2158 144.218 41.8542 142.628C38.9149 146.016 35.8408 149.56 32.8906 153.138C34.8987 155.141 37.0326 157.039 39.252 159.104C42.512 155.335 45.8321 151.411 49.1614 147.501Z" fill="#1A1A1A"/>
<path fill-rule="evenodd" clip-rule="evenodd" d="M40.3845 141.688C38.1669 140.341 36.3811 138.765 34.4094 137.482C31.6086 140.607 28.7823 143.7 26.1328 146.783C27.7473 148.472 29.5386 150.122 31.4592 151.973C34.5115 148.253 37.4908 144.907 40.3827 141.688H40.3845Z" fill="#1A1A1A"/>
<path fill-rule="evenodd" clip-rule="evenodd" d="M33.2915 136.625C31.4438 135.33 29.7655 134.018 28.0016 133.005C25.5543 135.655 22.9831 138.414 20.3828 141.515C21.7896 142.976 23.2638 144.403 24.9092 146.063C27.6116 143.003 30.4908 139.679 33.2915 136.625Z" fill="#1A1A1A"/>
<path fill-rule="evenodd" clip-rule="evenodd" d="M27.3795 132.448C25.8342 131.221 24.3509 130.188 23.079 128.999C20.8376 131.426 18.5252 133.942 16.293 136.306C17.4574 137.68 18.6309 139.199 20.0231 140.687C22.4631 137.832 24.9304 135.14 27.3795 132.446V132.448Z" fill="#1A1A1A"/>
<path fill-rule="evenodd" clip-rule="evenodd" d="M22.1692 128.185C20.8116 127.3 19.7165 126.12 18.6268 125.107C16.4893 127.333 14.3318 129.675 12.207 132.059C13.3459 133.092 14.2315 134.471 15.2793 135.727C17.5134 133.249 19.9297 130.632 22.1692 128.187V128.185Z" fill="#1A1A1A"/>
<path fill-rule="evenodd" clip-rule="evenodd" d="M18.0294 124.788C16.8468 123.927 16.0742 122.779 15.1047 121.795C13.2752 123.698 11.3819 125.725 9.62891 127.657C10.4926 128.738 11.2562 129.945 12.1272 131.192C14.0934 129.051 16.045 126.905 18.0294 124.788Z" fill="#1A1A1A"/>
<path fill-rule="evenodd" clip-rule="evenodd" d="M9.73579 115.273C9.34037 114.33 8.9905 113.493 8.68983 112.628C7.43431 113.955 6.32457 115.13 5.16016 116.373C5.34967 117.381 5.64305 118.309 5.73234 119.489C7.15733 118.019 8.42925 116.634 9.73761 115.275L9.73579 115.273Z" fill="#1A1A1A"/>
<path fill-rule="evenodd" clip-rule="evenodd" d="M8.36547 112.324C8.26525 111.316 7.96275 110.625 7.90809 109.782C6.9587 110.772 5.95465 111.841 4.99798 112.884C4.94878 113.844 5.04171 114.849 5.13829 115.806C6.20247 114.64 7.26119 113.455 8.36547 112.324Z" fill="#1A1A1A"/>
<path fill-rule="evenodd" clip-rule="evenodd" d="M8.05582 106.472C8.13418 105.845 8.36378 104.92 8.53507 104.226C7.89364 104.935 7.19755 105.734 6.6035 106.387C6.13154 107.368 5.80172 108.299 5.51562 109.242C6.36114 108.381 7.16293 107.435 8.054 106.474L8.05582 106.472Z" fill="#1A1A1A"/>
<path fill-rule="evenodd" clip-rule="evenodd" d="M9.67099 101.734C10.0245 101.125 10.5712 100.211 11.3074 99.303C10.9156 99.816 10.4254 100.369 10.2249 100.764C9.34299 101.821 8.69792 102.662 8 103.614C8.49565 103.024 9.13343 102.339 9.67281 101.734H9.67099Z" fill="#1A1A1A"/>
<path fill-rule="evenodd" clip-rule="evenodd" d="M14.6453 95.4382C15.3177 94.6969 16.0302 94.0388 16.6916 93.4497C16.2616 94.0062 15.8771 94.5337 15.4489 94.9905C14.638 95.7428 13.8234 96.5567 13.1055 97.2074C13.6849 96.5603 14.1168 96.0709 14.6471 95.4382H14.6453Z" fill="#1A1A1A"/>
<path fill-rule="evenodd" clip-rule="evenodd" d="M12.8941 99.1924C13.0071 98.6268 13.2622 98.0178 13.3752 97.4468C12.6973 98.2462 11.9703 99.0492 11.2906 99.7725C11.0354 100.434 10.6783 101.157 10.4141 101.872C11.1958 101.04 12.0705 100.15 12.8941 99.1924Z" fill="#1A1A1A"/>
<path fill-rule="evenodd" clip-rule="evenodd" d="M323.393 142.686C308.429 139.536 294.678 136.431 281.728 133.476C276.737 141.526 271.642 149.214 266.871 157.463C279.434 160.96 293.294 165.467 308.64 170.056C313.633 160.556 318.473 151.569 323.395 142.686H323.393Z" fill="#1A1A1A"/>
<path fill-rule="evenodd" clip-rule="evenodd" d="M237.095 133.596C226.648 131.279 217.457 128.995 208.309 127.267C203.823 133.344 198.937 139.637 194.066 146.236C202.992 148.947 212.36 151.859 222.428 155.08C227.118 147.843 232.224 140.411 237.095 133.594V133.596Z" fill="#1A1A1A"/>
<path fill-rule="evenodd" clip-rule="evenodd" d="M224.802 86.304C216.482 85.9705 208.697 85.4665 201.186 85.0677C196.96 89.6829 192.824 94.1838 188.848 98.8606C196.133 99.5222 203.87 100.363 212.101 101.567C216.209 96.2956 220.309 91.1911 224.802 86.304Z" fill="#1A1A1A"/>
<path fill-rule="evenodd" clip-rule="evenodd" d="M269.013 238C258.347 232.342 248.367 226.991 238.968 221.834C236.282 227.115 233.59 232.5 230.93 238H269.011H269.013Z" fill="#1A1A1A"/>
<path fill-rule="evenodd" clip-rule="evenodd" d="M232.58 218.523C220.334 212.01 209.545 205.73 198.988 200.111C193.451 209.693 187.778 219.998 182.133 230.283C185.588 232.839 189.105 235.402 192.711 238H223.075C226.291 231.344 229.453 224.874 232.58 218.523Z" fill="#1A1A1A"/>
<path fill-rule="evenodd" clip-rule="evenodd" d="M194.105 197.589C184.547 192.898 175.724 188.54 167.618 184.221C162.396 192.151 156.832 200.664 151.809 209.446C159.704 214.917 168.198 220.531 177.537 226.578C182.932 216.449 188.565 207.039 194.105 197.589Z" fill="#1A1A1A"/>
<path fill-rule="evenodd" clip-rule="evenodd" d="M163.184 183.017C155.288 178.978 148.092 175.447 141.27 172.074C136.567 178.759 131.605 185.676 126.617 192.711C133.168 197.174 140.34 202.094 147.894 207.269C153.076 198.539 158.074 190.817 163.184 183.015V183.017Z" fill="#1A1A1A"/>
<path fill-rule="evenodd" clip-rule="evenodd" d="M137.06 169.614C130.755 166.706 124.802 163.871 119.164 161.051C114.665 166.817 110.146 172.902 105.621 179.154C110.958 182.85 116.544 186.381 122.641 189.907C127.366 183.222 132.251 176.381 137.06 169.616V169.614Z" fill="#1A1A1A"/>
<path fill-rule="evenodd" clip-rule="evenodd" d="M115.905 159.399C110.781 156.503 105.875 154.366 101.008 152.248C96.7733 157.639 92.4272 163.148 87.9609 168.715C92.5639 171.298 97.3764 174.296 102.227 177.626C106.721 171.465 111.415 165.289 115.905 159.399Z" fill="#1A1A1A"/>
<path fill-rule="evenodd" clip-rule="evenodd" d="M98.8793 151.656C94.5551 149.562 90.2856 147.593 86.1291 145.851C82.4482 150.495 78.554 155.123 74.7109 159.753C78.4848 162.089 82.481 164.606 86.5336 167.303C90.7029 162.002 94.9122 156.699 98.8774 151.656H98.8793Z" fill="#1A1A1A"/>
<path fill-rule="evenodd" clip-rule="evenodd" d="M71.409 138.918C67.9741 137.671 64.9747 136.273 61.9954 134.897C58.7901 138.508 55.4572 142.3 52.3867 145.873C55.0927 147.619 57.724 149.499 60.953 151.154C64.3388 147.08 67.8375 142.966 71.409 138.916V138.918Z" fill="#1A1A1A"/>
<path fill-rule="evenodd" clip-rule="evenodd" d="M60.4101 134.252C57.5164 132.881 54.9033 131.517 52.3321 130.507C49.3473 133.746 46.5848 136.9 43.4961 140.402C45.8504 141.934 48.274 143.413 50.7796 145.108C54.0614 141.43 57.1446 137.81 60.4101 134.252Z" fill="#1A1A1A"/>
<path fill-rule="evenodd" clip-rule="evenodd" d="M51.0526 130.003C48.7073 128.899 46.579 127.753 44.3704 126.796C41.566 129.798 38.7798 132.744 36.2852 135.716C38.1056 137.058 40.2467 138.343 42.3568 139.723C45.3526 136.407 48.219 133.195 51.0507 130.003H51.0526Z" fill="#1A1A1A"/>
<path fill-rule="evenodd" clip-rule="evenodd" d="M42.7589 126.377C40.6196 125.417 38.7008 124.512 36.8421 123.475C34.619 125.877 31.9804 128.7 29.7227 131.283C31.3335 132.448 33.163 133.608 35.0126 134.923C37.5127 132.02 40.1987 129.162 42.7589 126.377Z" fill="#1A1A1A"/>
<path fill-rule="evenodd" clip-rule="evenodd" d="M35.817 122.952C34.0312 122.158 32.2509 121.373 30.6838 120.573C28.5044 122.886 26.4088 125.174 24.2422 127.434C25.6143 128.471 27.1979 129.428 28.6921 130.708C31.0519 128.043 33.3424 125.498 35.817 122.953V122.952Z" fill="#1A1A1A"/>
<path fill-rule="evenodd" clip-rule="evenodd" d="M30.2238 120.131C28.6657 119.389 27.3173 118.561 25.8285 117.89C23.9425 119.823 21.9453 121.949 19.9336 124.037C21.1764 124.969 22.3772 126.02 23.7348 127.092C25.8486 124.766 28.0444 122.491 30.2238 120.131Z" fill="#1A1A1A"/>
<path fill-rule="evenodd" clip-rule="evenodd" d="M25.1857 117.238C24.0013 116.362 22.8259 115.539 21.6542 114.921C19.7226 116.948 17.9751 118.789 16.2148 120.667C17.1351 121.657 18.161 122.576 19.2434 123.555C21.2551 121.394 23.2505 119.335 25.1857 117.236V117.238Z" fill="#1A1A1A"/>
<path fill-rule="evenodd" clip-rule="evenodd" d="M20.9749 114.479C19.9089 113.899 18.8976 113.29 18.0357 112.528C16.3993 114.26 14.9051 115.826 13.1484 117.7C13.9065 118.543 14.67 119.366 15.5356 120.216C17.294 118.389 19.0397 116.591 20.9749 114.479Z" fill="#1A1A1A"/>
<path fill-rule="evenodd" clip-rule="evenodd" d="M184.165 108.113C177.201 107.156 170.564 106.338 164.122 105.33C160.104 110.15 156.057 114.798 151.797 119.636C157.936 120.93 164.471 122.152 171.431 123.871C175.706 118.48 179.992 113.29 184.167 108.113H184.165Z" fill="#1A1A1A"/>
<path fill-rule="evenodd" clip-rule="evenodd" d="M54.921 83.2968C53.0259 83.3113 51.2292 83.315 49.5308 83.344C47.541 85.338 45.4891 87.283 43.5703 89.219C45.2285 89.1899 46.6663 89.4673 48.4812 89.5325C50.5768 87.4389 52.707 85.3506 54.9228 83.295L54.921 83.2968Z" fill="#1A1A1A"/>
<path fill-rule="evenodd" clip-rule="evenodd" d="M54.62 77.1028C52.9017 77.3112 51.2726 77.4689 49.6945 77.5976C47.763 79.4103 45.917 81.1524 44.1094 82.8636C45.5617 82.8726 47.0614 82.8545 48.6085 82.7929C50.5473 80.9475 52.6083 79.0007 54.62 77.1028Z" fill="#1A1A1A"/>
<path fill-rule="evenodd" clip-rule="evenodd" d="M384.669 238C379.59 235.859 374.629 233.751 369.789 231.668C368.976 233.747 368.178 235.859 367.391 238H384.671H384.669Z" fill="#1A1A1A"/>
<path fill-rule="evenodd" clip-rule="evenodd" d="M180.427 62.6248C174.421 62.9384 168.718 63.2139 163.286 63.4713C159.936 66.7922 156.622 70.1602 153.203 73.3759C158.637 73.4085 164.075 73.3324 169.924 73.2526C173.317 69.6562 176.909 66.1396 180.426 62.6248H180.427Z" fill="#1A1A1A"/>
<path fill-rule="evenodd" clip-rule="evenodd" d="M297.052 201.081C281.767 194.834 267.75 189.311 254.412 184.204C249.215 193.805 243.651 204.121 238.578 215.173C251.673 222.014 265.389 228.96 280.723 236.392C285.907 224.383 291.507 212.484 297.05 201.081H297.052Z" fill="#1A1A1A"/>
<path fill-rule="evenodd" clip-rule="evenodd" d="M210.513 167.045C200.842 163.453 191.636 160.257 183.101 157.112C178.13 164.219 173.064 171.755 168.137 179.374C176.295 183.546 185.28 187.785 194.463 192.072C199.813 183.679 205.152 175.039 210.511 167.047L210.513 167.045Z" fill="#1A1A1A"/>
<path fill-rule="evenodd" clip-rule="evenodd" d="M151.827 146.892C145.145 144.631 139.047 142.567 133.242 140.44C129.032 145.621 124.628 151.25 120.402 157.036C125.931 159.704 131.983 162.535 138.093 165.461C142.51 159.033 147.268 152.734 151.829 146.892H151.827Z" fill="#1A1A1A"/>
<path fill-rule="evenodd" clip-rule="evenodd" d="M129.923 139.413C124.388 137.556 119.204 135.916 114.235 134.417C110.073 139.327 106.033 144.312 101.871 149.27C106.598 151.288 111.414 153.314 116.624 155.836C121.138 150.046 125.462 144.47 129.923 139.413Z" fill="#1A1A1A"/>
<path fill-rule="evenodd" clip-rule="evenodd" d="M112.093 133.871C107.487 132.387 103.017 130.926 98.6305 129.441C94.9769 133.77 91.3215 138.024 87.5859 142.438C91.6258 144.245 95.8917 146.274 100.232 148.228C104.296 143.332 108.308 138.494 112.091 133.869L112.093 133.871Z" fill="#1A1A1A"/>
<path fill-rule="evenodd" clip-rule="evenodd" d="M95.7356 128.562C91.805 127.378 87.9546 126.24 84.4377 125.107C80.7641 129.198 77.2763 133.005 73.8359 137.096C77.1342 138.396 80.6839 139.869 84.5707 141.726C88.2371 137.069 92.1002 132.706 95.7356 128.562Z" fill="#1A1A1A"/>
<path fill-rule="evenodd" clip-rule="evenodd" d="M82.7113 124.741C79.1379 123.756 75.9362 122.629 72.7181 121.704C69.5657 125.107 66.3512 128.765 63.3555 132.309C66.2619 133.579 69.2504 134.991 72.7199 136.168C75.9417 132.49 79.362 128.507 82.7094 124.741H82.7113Z" fill="#1A1A1A"/>
<path fill-rule="evenodd" clip-rule="evenodd" d="M71.006 121.153C67.9265 120.325 65.0273 119.607 62.2903 118.808C59.402 121.956 56.43 125.054 53.6875 128.138C56.1931 129.089 58.9392 130.211 61.6652 131.558C64.7138 127.989 67.8517 124.594 71.006 121.153Z" fill="#1A1A1A"/>
<path fill-rule="evenodd" clip-rule="evenodd" d="M61.0323 118.412C58.4228 117.695 55.9264 116.933 53.5374 116.099C50.8678 118.973 48.1728 121.837 45.6562 124.63C47.7591 125.638 50.0806 126.639 52.4641 127.576C55.3159 124.559 58.1349 121.458 61.0341 118.412H61.0323Z" fill="#1A1A1A"/>
<path fill-rule="evenodd" clip-rule="evenodd" d="M51.8978 115.811C49.5872 115.112 47.5353 114.323 45.5528 113.699C43.0982 116.159 40.6819 118.681 38.293 121.126C40.0514 122.216 42.0668 123.2 44.248 124.081C46.8192 121.264 49.3193 118.548 51.8996 115.811H51.8978Z" fill="#1A1A1A"/>
<path fill-rule="evenodd" clip-rule="evenodd" d="M44.0955 113.58C42.1749 112.918 40.2652 112.362 38.4138 111.852C36.3893 113.97 34.1552 116.283 32.1016 118.532C33.7653 119.217 35.3889 119.997 37.171 120.758C39.4124 118.407 41.7375 116.043 44.0955 113.578V113.58Z" fill="#1A1A1A"/>
<path fill-rule="evenodd" clip-rule="evenodd" d="M37.9077 111.466C36.3096 110.814 34.7243 110.21 33.0952 109.673C31.16 111.676 29.0699 113.917 27.1602 115.94C28.5997 116.663 29.9956 117.434 31.4989 118.177C33.6018 115.951 35.7903 113.761 37.9095 111.468L37.9077 111.466Z" fill="#1A1A1A"/>
<path fill-rule="evenodd" clip-rule="evenodd" d="M32.3534 109.222C30.8829 108.675 29.5636 108.191 28.2005 107.776C26.3109 109.644 24.4595 111.472 22.6445 113.418C23.8618 114.004 25.0371 114.713 26.2671 115.489C28.2771 113.429 30.2724 111.298 32.3516 109.222H32.3534Z" fill="#1A1A1A"/>
<path fill-rule="evenodd" clip-rule="evenodd" d="M139.405 102.794C134.186 102.261 129.162 101.857 124.344 101.33C120.781 105.163 117.148 109.09 113.523 112.962C118.172 113.741 122.813 114.675 128.025 115.73C131.826 111.334 135.587 106.962 139.405 102.794Z" fill="#1A1A1A"/>
<path fill-rule="evenodd" clip-rule="evenodd" d="M122.159 100.982C117.616 100.411 113.177 100.024 109.19 99.4933C105.699 103.075 102.246 106.739 99.0039 110.326C102.951 111.091 107.024 111.863 111.422 112.566C114.914 108.809 118.595 104.803 122.159 100.982Z" fill="#1A1A1A"/>
<path fill-rule="evenodd" clip-rule="evenodd" d="M107.21 99.2739C103.066 98.8751 99.3508 98.5216 95.7464 98.1754C92.625 101.344 89.3504 104.741 86.2344 107.995C89.7003 108.647 93.2846 109.307 97.0585 110.107C100.342 106.405 103.806 102.751 107.21 99.2739Z" fill="#1A1A1A"/>
<path fill-rule="evenodd" clip-rule="evenodd" d="M94.0455 97.9797C90.5177 97.6425 87.1684 97.4377 83.9704 97.1422C81.042 100.097 77.9279 103.365 75.1016 106.273C78.1465 106.786 81.3391 107.166 84.61 107.681C87.5966 104.565 90.9259 101.168 94.0473 97.9797H94.0455Z" fill="#1A1A1A"/>
<path fill-rule="evenodd" clip-rule="evenodd" d="M82.4048 97.028C79.3179 96.6854 76.4333 96.2667 73.5378 96.1525C70.8172 98.8588 68.031 101.676 65.2812 104.587C67.8761 105.035 70.6386 105.548 73.618 106.101C76.4844 103.041 79.5238 99.9773 82.4048 97.028Z" fill="#1A1A1A"/>
<path fill-rule="evenodd" clip-rule="evenodd" d="M72.1971 96.1054C69.5002 95.848 67.0129 95.6105 64.4891 95.4437C61.8341 98.0087 59.1663 100.648 56.8594 103.099C59.0716 103.541 61.4405 103.998 64.0572 104.326C66.7195 101.485 69.369 98.8027 72.1953 96.1054H72.1971Z" fill="#1A1A1A"/>
<path fill-rule="evenodd" clip-rule="evenodd" d="M63.3544 95.3585C60.9363 95.1119 58.5801 94.9542 56.47 94.7258C54.03 97.1005 51.6283 99.5494 49.2539 101.915C51.242 102.381 53.5216 102.618 55.6627 102.934C58.1665 100.456 60.6465 97.9234 63.3544 95.3603V95.3585Z" fill="#1A1A1A"/>
<path fill-rule="evenodd" clip-rule="evenodd" d="M55.2529 94.7639C53.1081 94.5736 51.1109 94.3832 49.2176 94.2074C47.1439 96.3536 44.9591 98.5126 42.7578 100.615C44.5673 100.92 46.4861 101.382 48.3138 101.79C50.5934 99.4207 52.8621 97.1712 55.2529 94.7639Z" fill="#1A1A1A"/>
<path fill-rule="evenodd" clip-rule="evenodd" d="M48.0568 94.0824C46.2236 93.9537 44.5854 93.7398 42.9071 93.6582C40.9081 95.5561 38.9 97.5301 36.8828 99.5332C38.4317 99.8196 39.8895 100.166 41.5404 100.438C43.6943 98.3295 45.9302 96.1742 48.0568 94.0806V94.0824Z" fill="#1A1A1A"/>
<path fill-rule="evenodd" clip-rule="evenodd" d="M41.9465 93.4878C40.3684 93.2975 38.9835 93.1271 37.5111 92.9984C35.5996 94.8637 33.6772 96.671 31.793 98.6124C33.0868 98.926 34.4789 99.1543 35.924 99.5205C37.8956 97.503 39.9511 95.4709 41.9483 93.4878H41.9465Z" fill="#1A1A1A"/>
<path fill-rule="evenodd" clip-rule="evenodd" d="M36.892 92.964C35.5618 92.7447 34.4247 92.4637 33.2439 92.2407C31.5164 93.9682 29.7343 95.7193 28.1289 97.3417C29.1712 97.6516 30.3593 97.9507 31.4563 98.3169C33.2457 96.5278 35.1208 94.7114 36.892 92.964Z" fill="#1A1A1A"/>
<path fill-rule="evenodd" clip-rule="evenodd" d="M32.4898 92.0884C31.4547 91.8835 30.3286 91.8219 29.392 91.5699C27.7556 93.1833 26.1083 94.7821 24.5977 96.3229C25.4414 96.6074 26.2887 96.9174 27.28 97.1839C28.9309 95.567 30.7167 93.892 32.4916 92.0884H32.4898Z" fill="#1A1A1A"/>
<path fill-rule="evenodd" clip-rule="evenodd" d="M20.723 93.06C20.4042 92.7881 20.1363 92.3657 19.9085 92.0648C18.8206 93.2159 17.7328 94.2292 16.8253 95.2479C16.8089 95.7482 16.9838 96.1905 17.2043 96.6183C18.3961 95.4383 19.4912 94.3108 20.7212 93.06H20.723Z" fill="#1A1A1A"/>
<path fill-rule="evenodd" clip-rule="evenodd" d="M41.9375 83.663C44.5397 83.1119 47.0963 82.559 50.0319 81.979C50.7225 81.6273 51.373 81.466 52.204 81.156C49.088 81.9173 46.2526 82.521 43.5119 83.1681C42.8705 83.6013 42.4423 83.4019 41.9375 83.663Z" fill="#1A1A1A"/>
<path fill-rule="evenodd" clip-rule="evenodd" d="M59.6562 80.7573C63.3408 80.4382 67.0691 80.4473 71.1272 80.2624C71.8889 80.1917 72.749 80.1282 73.6383 79.8582C69.3997 80.2624 65.5166 80.1717 61.77 80.3965C60.8881 80.7246 60.2157 80.6068 59.6562 80.7591V80.7573Z" fill="#1A1A1A"/>
<path fill-rule="evenodd" clip-rule="evenodd" d="M133.51 88.4159C128.811 88.1168 124.148 87.95 119.937 87.6781C116.562 91.0552 113.227 94.4902 109.973 97.9869C114.136 98.4057 118.574 98.8099 122.993 99.3229C126.477 95.5597 130.081 91.8256 133.509 88.4141L133.51 88.4159Z" fill="#1A1A1A"/>
<path fill-rule="evenodd" clip-rule="evenodd" d="M117.889 87.5603C113.684 87.4932 109.691 87.408 105.943 87.2467C102.902 90.3682 99.5559 93.6365 96.6094 96.7525C100.155 97.1006 104.008 97.3706 107.986 97.6951C111.207 94.2927 114.602 90.854 117.889 87.5621V87.5603Z" fill="#1A1A1A"/>
<path fill-rule="evenodd" clip-rule="evenodd" d="M104.136 87.2322C100.422 87.1416 96.9327 87.147 93.4905 87.0654C90.5676 89.8479 87.6521 92.8081 84.8203 95.857C88.053 96.0329 91.3968 96.2667 94.8827 96.6746C97.7837 93.573 101.084 90.2902 104.138 87.2304L104.136 87.2322Z" fill="#1A1A1A"/>
<path fill-rule="evenodd" clip-rule="evenodd" d="M91.8867 86.9657C88.6085 86.8987 85.5526 86.9567 82.586 86.8606C79.7816 89.5488 77.0537 92.228 74.4023 94.8872C77.1958 95.0105 80.1187 95.3622 83.2493 95.7011C86.1029 92.7899 89.0167 89.7827 91.8867 86.9657Z" fill="#1A1A1A"/>
<path fill-rule="evenodd" clip-rule="evenodd" d="M81.1563 86.7935C78.217 86.8497 75.6586 86.7119 72.9781 86.7373C70.3359 89.2878 67.7665 91.7421 65.2773 94.24C67.7501 94.463 70.3304 94.6733 73.0638 94.8437C75.7133 92.1373 78.4084 89.5778 81.1563 86.7935Z" fill="#1A1A1A"/>
<path fill-rule="evenodd" clip-rule="evenodd" d="M71.7532 86.6467C69.1292 86.6177 66.7511 86.6086 64.3768 86.5234C61.9422 88.8727 59.5879 91.1948 57.2227 93.564C59.3437 93.9736 61.6452 94.077 64.0542 94.2437C66.6382 91.6788 69.0635 89.2008 71.755 86.6467H71.7532Z" fill="#1A1A1A"/>
<path fill-rule="evenodd" clip-rule="evenodd" d="M63.2691 86.5505C61.0532 86.5505 58.8009 86.6502 56.8803 86.5977C54.6572 88.6768 52.3794 90.9028 50.1289 93.0346C52.0623 93.1488 54.0522 93.3101 56.1532 93.5584C58.4255 91.2037 60.8801 88.8962 63.2691 86.5505Z" fill="#1A1A1A"/>
<path fill-rule="evenodd" clip-rule="evenodd" d="M145.285 75.8901C140.342 75.9427 135.571 76.0134 131.114 76.124C127.861 79.3832 124.618 82.5174 121.414 85.7494C125.798 85.8963 130.41 86.1156 135.041 86.315C138.512 82.8092 141.994 79.2545 145.285 75.892V75.8901Z" fill="#1A1A1A"/>
<path fill-rule="evenodd" clip-rule="evenodd" d="M129.035 76.2708C124.683 76.2853 120.472 76.4756 116.554 76.6043C113.475 79.5971 110.373 82.5898 107.387 85.5627C111.197 85.5246 115.281 85.5862 119.395 85.7766C122.54 82.4702 125.755 79.3723 129.035 76.2708Z" fill="#1A1A1A"/>
<path fill-rule="evenodd" clip-rule="evenodd" d="M114.572 76.637C110.714 76.7131 106.979 76.8654 103.451 77.0231C100.639 79.7258 97.7765 82.5137 94.9102 85.4449C98.2904 85.4684 101.835 85.5355 105.49 85.5917C108.469 82.5754 111.571 79.5264 114.57 76.637H114.572Z" fill="#1A1A1A"/>
<path fill-rule="evenodd" clip-rule="evenodd" d="M101.834 77.0411C98.3241 77.2405 95.2937 77.3022 92.092 77.4834C89.2493 80.1245 86.669 82.6605 83.9375 85.2998C86.9879 85.3143 90.0912 85.2817 93.415 85.3469C96.1009 82.5409 98.9691 79.7529 101.834 77.0411Z" fill="#1A1A1A"/>
<path fill-rule="evenodd" clip-rule="evenodd" d="M90.4494 77.6212C87.5338 77.6774 84.6784 77.759 81.8375 77.9257C79.2062 80.4617 76.6879 82.869 74.2461 85.2382C76.7918 85.3669 79.5306 85.385 82.5118 85.3198C85.1485 82.6696 87.7871 80.1862 90.4494 77.6212Z" fill="#1A1A1A"/>
<path fill-rule="evenodd" clip-rule="evenodd" d="M80.4418 77.9692C77.6629 78.1596 75.2193 78.2647 72.8741 78.359C70.3904 80.6466 67.8502 82.9542 65.5742 85.191C67.8957 85.2291 70.323 85.3052 72.9852 85.2382C75.4289 82.878 77.9035 80.4762 80.4418 77.9692Z" fill="#1A1A1A"/>
<path fill-rule="evenodd" clip-rule="evenodd" d="M71.4102 78.6345C68.9393 78.8394 66.7526 78.9536 64.524 79.0859C62.2517 81.2357 59.8755 83.4527 57.6797 85.6714C59.7771 85.5101 61.9838 85.4811 64.2871 85.3868C66.5704 83.2406 68.8409 81.0962 71.4102 78.6363V78.6345Z" fill="#1A1A1A"/>
<path fill-rule="evenodd" clip-rule="evenodd" d="M139.513 65.8169C134.989 66.0743 130.707 66.2501 126.566 66.5873C123.498 69.513 120.535 72.3444 117.539 75.3934C121.625 75.1179 125.71 75.0889 130.138 74.9602C133.147 71.9058 136.288 68.8568 139.512 65.8169H139.513Z" fill="#1A1A1A"/>
<path fill-rule="evenodd" clip-rule="evenodd" d="M124.492 66.8792C120.439 67.064 116.715 67.4121 112.957 67.8073C110.102 70.4339 107.336 73.1112 104.504 75.8375C108.154 75.533 111.707 75.5239 115.654 75.4007C118.628 72.4931 121.617 69.5348 124.492 66.8792Z" fill="#1A1A1A"/>
<path fill-rule="evenodd" clip-rule="evenodd" d="M111.224 67.9541C107.656 68.2296 104.349 68.5813 100.999 68.9438C98.2878 71.3982 95.6693 73.9541 92.9414 76.5173C96.1704 76.1892 99.3411 76.1221 102.887 75.8611C105.546 73.2925 108.372 70.6423 111.224 67.9541Z" fill="#1A1A1A"/>
<path fill-rule="evenodd" clip-rule="evenodd" d="M99.3683 69.0616C96.2122 69.3426 93.2401 69.513 90.2899 69.794C87.7424 72.1722 85.2696 74.5233 82.7422 76.9342C85.5812 76.7874 88.382 76.6623 91.5254 76.5209C94.2113 73.9904 96.7005 71.5305 99.3683 69.0616Z" fill="#1A1A1A"/>
<path fill-rule="evenodd" clip-rule="evenodd" d="M88.8222 69.9717C86.1581 70.1475 83.5049 70.3995 80.7752 70.7856C78.379 72.9735 75.9791 75.2539 73.6484 77.4364C76.1303 77.3168 78.7033 77.0702 81.3492 77.0032C83.9277 74.5904 86.4077 72.3028 88.8222 69.9717Z" fill="#1A1A1A"/>
<path fill-rule="evenodd" clip-rule="evenodd" d="M72.6198 72.4877C70.2764 72.7777 68.0314 73.0442 65.9705 73.2254C63.853 75.1705 61.5935 77.2315 59.4141 79.278C61.4859 79.0932 63.6198 79.0442 65.7482 78.9119C67.9112 76.7892 70.2491 74.6448 72.6198 72.4895V72.4877Z" fill="#1A1A1A"/>
<path fill-rule="evenodd" clip-rule="evenodd" d="M64.7066 73.3342C62.6985 73.5101 60.7833 73.6388 58.9247 73.8726C56.9785 75.7469 55.016 77.498 53.1445 79.3288C54.7882 79.3053 56.6651 79.1711 58.4563 79.1149C60.4572 77.2497 62.6274 75.2176 64.7066 73.3342Z" fill="#1A1A1A"/>
<path fill-rule="evenodd" clip-rule="evenodd" d="M134.619 57.5201C130.548 58.0005 126.623 58.4627 122.667 58.9341C119.864 61.5407 117.129 64.0676 114.25 66.7178C118.131 66.2139 121.774 65.9945 125.927 65.5468C128.764 62.8024 131.712 60.2174 134.619 57.5201Z" fill="#1A1A1A"/>
<path fill-rule="evenodd" clip-rule="evenodd" d="M120.848 59.1244C117.224 59.5195 113.583 60.0325 110.122 60.4658C107.555 62.8875 104.88 65.3329 102.199 67.8398C105.589 67.4646 108.861 67.2018 112.519 66.8972C115.392 64.2054 118.136 61.702 120.848 59.1226V59.1244Z" fill="#1A1A1A"/>
<path fill-rule="evenodd" clip-rule="evenodd" d="M108.464 60.6598C105.246 61.026 102.09 61.4592 98.8535 61.945C96.388 64.258 94.0319 66.3752 91.457 68.7444C94.4036 68.4635 97.4121 68.226 100.577 68.0157C103.207 65.4943 105.926 62.9909 108.464 60.6598Z" fill="#1A1A1A"/>
<path fill-rule="evenodd" clip-rule="evenodd" d="M97.445 62.1643C94.5877 62.6012 91.7322 62.9782 89.0208 63.3444C86.6646 65.5051 84.2009 67.6731 81.8594 69.8012C84.549 69.5257 87.1967 69.2357 89.9884 68.9202C92.5705 66.5837 95.0141 64.3722 97.445 62.1643Z" fill="#1A1A1A"/>
<path fill-rule="evenodd" clip-rule="evenodd" d="M80.2815 65.2042C77.8233 65.5994 75.5473 65.8713 73.4098 66.1468C71.2012 68.168 68.9727 70.1583 66.8789 72.194C68.9818 71.9747 71.1338 71.7571 73.521 71.4526C75.7423 69.3879 77.9545 67.3613 80.2815 65.206V65.2042Z" fill="#1A1A1A"/>
<path fill-rule="evenodd" clip-rule="evenodd" d="M71.8238 66.7541C69.648 67.0442 67.7092 67.3487 65.732 67.7149C63.6766 69.5457 61.6593 71.3584 59.5 73.3089C61.355 73.066 63.3613 72.9137 65.3676 72.7469C67.4686 70.7385 69.6043 68.7499 71.8256 66.7523L71.8238 66.7541Z" fill="#1A1A1A"/>
<path fill-rule="evenodd" clip-rule="evenodd" d="M143.351 47.8893C139.06 48.5618 135.007 49.1618 131.111 49.8343C128.312 52.1618 125.657 54.5546 122.785 57.1757C126.712 56.5757 130.677 56.1479 134.728 55.6241C137.616 52.9558 140.468 50.4234 143.349 47.8875L143.351 47.8893Z" fill="#1A1A1A"/>
<path fill-rule="evenodd" clip-rule="evenodd" d="M129.261 50.0283C125.425 50.6881 121.762 51.203 118.169 51.8247C115.68 54.1323 113.072 56.3583 110.43 58.7764C113.916 58.2725 117.515 57.8302 121.154 57.2773C123.819 54.8555 126.484 52.4954 129.261 50.0283Z" fill="#1A1A1A"/>
<path fill-rule="evenodd" clip-rule="evenodd" d="M139.197 41.4524C135.295 42.1394 131.556 42.8935 127.9 43.5751C125.271 45.9008 122.7 48.1322 120.125 50.3709C123.574 49.7799 127.319 49.2089 131.248 48.5419C133.843 46.2343 136.551 43.8488 139.198 41.4524H139.197Z" fill="#1A1A1A"/>
<path fill-rule="evenodd" clip-rule="evenodd" d="M181.634 43.894C176.022 44.6681 170.796 45.3877 165.825 45.9043C162.517 48.7521 159.489 51.6742 156.559 54.415C161.384 54.0107 166.523 53.4307 171.971 52.8452C175.071 49.8886 178.294 46.8922 181.633 43.8959L181.634 43.894Z" fill="#1A1A1A"/>
<path fill-rule="evenodd" clip-rule="evenodd" d="M30.1745 99.1489C28.9828 98.8208 27.8913 98.4727 26.849 98.1918C25.2308 99.7906 23.558 101.422 21.9727 103.217C22.7781 103.635 23.7275 104.139 24.7297 104.596C26.4608 102.85 28.3232 100.942 30.1745 99.1489Z" fill="#1A1A1A"/>
<path fill-rule="evenodd" clip-rule="evenodd" d="M34.6405 100.276C33.2429 99.9483 31.9472 99.5912 30.7027 99.2686C28.8021 101.19 26.9871 103.037 25.2578 104.792C26.2637 105.343 27.3716 105.858 28.5816 106.385C30.5496 104.344 32.6014 102.256 34.6405 100.276Z" fill="#1A1A1A"/>
<path fill-rule="evenodd" clip-rule="evenodd" d="M39.8289 101.453C38.2253 101.168 36.7675 100.773 35.3626 100.372C33.2305 102.528 31.1787 104.569 29.2617 106.563C30.5737 106.987 31.893 107.485 33.4583 107.881C35.563 105.731 37.7515 103.57 39.8307 101.453H39.8289Z" fill="#1A1A1A"/>
<path fill-rule="evenodd" clip-rule="evenodd" d="M46.4518 102.774C44.5767 102.37 42.7563 101.942 40.9486 101.656C38.8221 103.764 36.5935 106.128 34.4414 108.359C36.0687 108.802 37.6558 109.449 39.2977 110.09C41.6338 107.578 44.1011 105.191 46.4518 102.773V102.774Z" fill="#1A1A1A"/>
<path fill-rule="evenodd" clip-rule="evenodd" d="M53.6486 103.963C51.4565 103.635 49.2752 103.307 47.4384 102.888C45.0404 105.267 42.5749 107.685 40.1914 110.177C42.0446 110.781 43.9999 111.305 46.0189 111.876C48.4352 109.287 50.979 106.672 53.6486 103.963Z" fill="#1A1A1A"/>
<path fill-rule="evenodd" clip-rule="evenodd" d="M61.8554 105.53C59.3316 105.14 57.0137 104.701 54.8015 104.235C52.039 107.038 49.4514 109.73 47.0352 112.28C49.0651 112.86 51.2627 113.583 53.5187 114.263C56.3523 111.27 58.9726 108.521 61.8554 105.528V105.53Z" fill="#1A1A1A"/>
<path fill-rule="evenodd" clip-rule="evenodd" d="M71.1238 107.475C68.2538 106.985 65.5878 106.432 62.9875 105.905C60.2068 108.859 57.4406 111.704 54.6562 114.644C57.0397 115.42 59.5854 116.176 62.193 116.937C65.1414 113.725 68.2119 110.505 71.1238 107.475Z" fill="#1A1A1A"/>
<path fill-rule="evenodd" clip-rule="evenodd" d="M82.8455 109.173C79.5509 108.517 76.3966 108.026 73.4628 107.598C70.4524 110.596 67.3984 113.877 64.4062 117.08C67.1815 117.742 70.1773 118.454 73.1657 119.44C76.4567 115.829 79.5891 112.476 82.8473 109.173H82.8455Z" fill="#1A1A1A"/>
<path fill-rule="evenodd" clip-rule="evenodd" d="M94.8971 111.305C91.1852 110.582 87.5298 109.764 84.3227 109.131C81.0353 112.581 77.7079 115.982 74.5664 119.507C77.7316 120.473 81.0809 121.528 84.7363 122.391C88.0856 118.67 91.4622 115.059 94.8971 111.307V111.305Z" fill="#1A1A1A"/>
<path fill-rule="evenodd" clip-rule="evenodd" d="M109.226 113.861C104.928 113.114 100.664 112.467 96.9808 111.406C93.5131 115.228 89.9688 119.081 86.6797 122.834C90.3351 123.89 94.1745 124.965 98.24 125.988C101.957 121.82 105.516 117.876 109.228 113.861H109.226Z" fill="#1A1A1A"/>
<path fill-rule="evenodd" clip-rule="evenodd" d="M125.46 117.29C120.409 116.248 115.764 115.316 111.398 114.327C107.65 118.441 103.863 122.553 100.164 126.84C104.72 128.1 108.922 129.671 113.743 130.902C117.727 126.325 121.665 121.768 125.46 117.29Z" fill="#1A1A1A"/>
<path fill-rule="evenodd" clip-rule="evenodd" d="M144.224 121.581C138.317 120.425 133.081 119.332 127.802 118.184C123.863 122.703 119.932 127.304 115.996 131.801C120.925 133.429 126.146 135.022 131.624 136.654C135.957 131.377 140.075 126.416 144.224 121.581Z" fill="#1A1A1A"/>
<path fill-rule="evenodd" clip-rule="evenodd" d="M339.523 95.4582C335.804 92.489 332.163 89.4926 328.835 86.7572C323.46 89.7971 318.108 92.6285 312.703 95.8388C315.719 98.9839 318.706 102.281 322.315 105.655C328.143 102.214 333.967 98.7935 339.521 95.4582H339.523Z" fill="#1A1A1A"/>
<path fill-rule="evenodd" clip-rule="evenodd" d="M157.091 89.3639C155.612 87.8757 154.167 86.4908 152.663 85.3053C150.569 86.77 148.388 88.3307 146.234 89.8153C147.572 91.2238 148.835 92.7374 150.192 94.4395C152.51 92.7084 154.823 90.9899 157.093 89.3639H157.091Z" fill="#1A1A1A"/>
<path fill-rule="evenodd" clip-rule="evenodd" d="M98.5324 34.3829C97.9565 33.5055 97.4281 32.5919 96.9416 31.6765C95.0574 33.2336 93.0456 34.9194 91.0703 36.5617C91.3783 37.6149 91.8138 38.5775 92.3058 39.6089C94.3722 37.8741 96.4732 36.1104 98.5305 34.3829H98.5324Z" fill="#1A1A1A"/>
<path fill-rule="evenodd" clip-rule="evenodd" d="M404.416 186.585C399.768 182.95 395.384 179.468 391.125 176.403C385.58 178.107 380.139 180.124 374.43 182.049C378.57 185.399 382.644 189.019 386.832 192.92C392.787 190.683 398.879 188.667 404.418 186.583L404.416 186.585Z" fill="#1A1A1A"/>
<path fill-rule="evenodd" clip-rule="evenodd" d="M111.804 46.1727C111.347 45.6706 110.986 45.1811 110.627 44.7098C109.402 45.5981 108.17 46.47 106.98 47.3401C107.256 47.8784 107.54 48.5111 107.859 49.0404C109.176 48.0887 110.445 47.1443 111.804 46.1709V46.1727Z" fill="#1A1A1A"/>
<path fill-rule="evenodd" clip-rule="evenodd" d="M154.001 23.2003C152.896 22.7308 151.85 22.3157 150.815 21.9332C149.254 22.9937 147.694 24.0903 146.098 25.2468C146.969 25.7707 147.925 26.2366 149.013 26.8384C150.639 25.5713 152.321 24.3876 154.001 23.2021V23.2003Z" fill="#1A1A1A"/>
<path fill-rule="evenodd" clip-rule="evenodd" d="M388.859 66.2175C384.482 64.4193 380.412 62.8495 376.546 61.3704C371.545 63.4405 366.811 65.4236 362.281 67.5263C365.774 69.2683 369.454 71.052 373.57 73.2454C378.855 70.7855 383.99 68.3456 388.859 66.2175Z" fill="#1A1A1A"/>
<path fill-rule="evenodd" clip-rule="evenodd" d="M136.098 20.3978C135.431 20.0842 134.932 19.6728 134.404 19.3628C133.132 20.193 131.92 21.1302 130.695 22.0347C131.144 22.4317 131.557 22.9012 132.098 23.2637C133.318 22.3338 134.706 21.3495 136.098 20.3978Z" fill="#1A1A1A"/>
<path fill-rule="evenodd" clip-rule="evenodd" d="M108.275 13.5495C107.922 13.2921 107.536 13.0945 107.187 12.8571C106.271 13.5658 105.267 14.2982 104.387 14.9743C104.691 15.2498 104.955 15.529 105.227 15.848C106.231 15.0921 107.273 14.3217 108.275 13.5495Z" fill="#1A1A1A"/>
<path fill-rule="evenodd" clip-rule="evenodd" d="M41.0889 83.3493C40.9395 82.9686 40.7426 82.588 40.6406 82.2218C39.9081 82.7221 39.2247 83.2931 38.4922 83.8152C38.5487 84.2575 38.6507 84.6762 38.7528 85.0949C39.5782 84.5094 40.3126 83.9294 41.0889 83.3493Z" fill="#1A1A1A"/>
<path fill-rule="evenodd" clip-rule="evenodd" d="M407.78 125.226C404.664 123.738 402.142 122.333 399.482 120.988C395.575 122.092 391.834 123.091 388.105 124.171C390.392 125.551 392.982 127.159 395.722 128.681C399.806 127.572 403.806 126.365 407.78 125.226Z" fill="#1A1A1A"/>
<path fill-rule="evenodd" clip-rule="evenodd" d="M178.471 16.0003C177.377 15.6776 176.26 15.4565 175.314 15.1266C173.793 16.1181 172.186 17.1477 170.746 18.103C171.663 18.5055 172.521 18.8481 173.534 19.2251C175.048 18.1864 176.82 17.0408 178.471 16.0003Z" fill="#1A1A1A"/>
<path fill-rule="evenodd" clip-rule="evenodd" d="M120.897 21.5164C120.266 21.317 119.645 21.1756 119.063 20.9979C118.085 21.7013 116.977 22.4735 115.949 23.1695C116.534 23.3762 117.074 23.5683 117.662 23.7786C118.77 23.01 119.792 22.2868 120.898 21.5164H120.897Z" fill="#1A1A1A"/>
<path fill-rule="evenodd" clip-rule="evenodd" d="M14.5507 102.756C14.3722 102.466 14.2391 102.238 14.0587 101.948C13.4811 102.343 12.9053 102.742 12.375 103.113C12.5044 103.412 12.5882 103.693 12.7686 103.936C13.3481 103.561 13.9749 103.157 14.5507 102.756Z" fill="#1A1A1A"/>
<path fill-rule="evenodd" clip-rule="evenodd" d="M106.041 37.6893C105.41 37.4826 104.82 37.2452 104.24 37.0929C103.318 37.7183 102.305 38.389 101.332 39.0125C101.917 39.2192 102.502 39.4367 103.047 39.6832C104.014 39.0252 105.029 38.3636 106.041 37.6893Z" fill="#1A1A1A"/>
<path fill-rule="evenodd" clip-rule="evenodd" d="M204.129 46.3394C202.761 45.9823 201.449 45.6179 200.188 45.2808C198.528 46.1744 196.911 47.0246 195.16 47.9599C196.456 48.2554 197.728 48.6596 198.998 49.0349C200.649 48.114 202.456 47.2004 204.129 46.3394Z" fill="#1A1A1A"/>
<path fill-rule="evenodd" clip-rule="evenodd" d="M10.1328 96.4897C9.96331 96.1942 9.74282 95.9386 9.57153 95.7102C9.00482 96.0709 8.48184 96.448 7.95703 96.8703C8.1265 97.1223 8.29961 97.3851 8.46908 97.6788C9.04126 97.2746 9.61162 96.8703 10.1328 96.4897Z" fill="#1A1A1A"/>
<path fill-rule="evenodd" clip-rule="evenodd" d="M90.7713 51.8446C90.1864 51.6397 89.596 51.3696 89.0584 51.1539C88.1528 51.7576 87.3364 52.3104 86.4727 52.8996C86.9647 53.128 87.4603 53.3854 88.0033 53.6609C88.9108 53.0337 89.8219 52.4863 90.7713 51.8428V51.8446Z" fill="#1A1A1A"/>
<path fill-rule="evenodd" clip-rule="evenodd" d="M98.1978 27.8499C97.6857 27.7175 97.1846 27.6668 96.6762 27.5725C95.9309 28.0801 95.1492 28.6474 94.3984 29.1242C94.8176 29.2148 95.3278 29.3453 95.7542 29.4903C96.5815 28.9193 97.3669 28.3683 98.1978 27.8517V27.8499Z" fill="#1A1A1A"/>
<path fill-rule="evenodd" clip-rule="evenodd" d="M474.001 158.625C469.842 157.375 465.445 155.89 461.001 154.601C456.884 155.482 452.438 156.109 448.258 156.88C452.254 158.102 456.582 159.534 460.58 160.953C465.25 160.168 469.571 159.445 474.001 158.627V158.625Z" fill="#1A1A1A"/>
<path fill-rule="evenodd" clip-rule="evenodd" d="M154.427 -1.03735C153.51 -1.0011 152.685 -0.992036 151.859 -0.984785C150.892 -0.370279 149.882 0.271417 148.84 0.958431C149.662 0.920365 150.414 0.989247 151.243 0.981996C152.286 0.296795 153.33 -0.395657 154.425 -1.03735H154.427Z" fill="#1A1A1A"/>
<path fill-rule="evenodd" clip-rule="evenodd" d="M21.5405 100.111C21.2599 99.9029 20.9793 99.6872 20.7952 99.4878C20.2723 99.8213 19.7001 100.202 19.2227 100.507C19.4067 100.729 19.6381 100.92 19.8696 101.159C20.4417 100.773 20.9684 100.45 21.5405 100.113V100.111Z" fill="#1A1A1A"/>
<path fill-rule="evenodd" clip-rule="evenodd" d="M268.629 77.8931C266.559 77.3892 264.341 77.0883 262.229 76.6315C260.148 77.3547 258.255 77.9874 256.395 78.7306C258.312 79.0822 260.387 79.5771 262.554 80.072C264.578 79.3251 266.657 78.6073 268.627 77.8931H268.629Z" fill="#1A1A1A"/>
<path fill-rule="evenodd" clip-rule="evenodd" d="M261.563 115.449C259.696 114.283 257.848 113.123 255.989 112.113C253.387 113.112 250.734 114.287 248.062 115.42C249.792 116.571 251.51 117.693 253.247 119.002C256.142 117.689 258.885 116.589 261.563 115.447V115.449Z" fill="#1A1A1A"/>
<path fill-rule="evenodd" clip-rule="evenodd" d="M15.6414 109.615C15.4628 109.102 15.3335 108.579 15.2023 108.131C14.4716 108.655 13.6898 109.235 12.9062 109.838C12.9846 110.362 13.0648 110.957 13.1887 111.493C13.9759 110.875 14.8087 110.246 15.6414 109.614V109.615Z" fill="#1A1A1A"/>
<path fill-rule="evenodd" clip-rule="evenodd" d="M216.337 69.0725C214.654 68.1118 213.101 67.2544 211.66 66.4187C209.444 67.6459 207.135 68.9492 204.828 70.2761C206.279 71.1662 207.574 72.2357 209.191 73.1547C211.643 71.7789 213.985 70.4103 216.337 69.0725Z" fill="#1A1A1A"/>
</g>
</g>
<path d="M0 1H778V-1H0V1ZM778 237H0V239H778V237Z" fill="#262626" mask="url(#path-1-inside-1_286_125)"/>
<defs>
<clipPath id="clip0_286_125">
<path d="M0 0H778V238H0V0Z" fill="white"/>
</clipPath>
<clipPath id="clip1_286_125">
<rect width="569" height="310" fill="white" transform="matrix(-1 0 0 1 792 -51)"/>
</clipPath>
<clipPath id="clip2_286_125">
<rect width="474" height="258" fill="white" transform="translate(0 -20)"/>
</clipPath>
</defs>
</svg>
