<svg width="650" height="266" viewBox="0 0 650 266" fill="none" xmlns="http://www.w3.org/2000/svg">
<g clip-path="url(#clip0_284_58)">
<rect width="650" height="266" rx="12" fill="#1A1A1A"/>
<g clip-path="url(#clip1_284_58)">
<path d="M-301.82 418.051C-125.108 360.931 10.5724 425.129 172.856 488.764C260.482 523.108 349.107 550.962 442.474 522.569C580.896 480.479 671.111 365.83 785.544 286.088C980.095 150.535 1043.96 440.185 1211.06 474.247C1282.18 488.738 1326.09 439.185 1386.98 414.998C1472.99 380.834 1551.96 438.98 1620.36 486.763" stroke="url(#paint0_linear_284_58)" stroke-miterlimit="10"/>
<path d="M-301.82 383.271C-222.652 353.082 -145.38 346.131 -63.4956 370.498C12.1102 392.992 77.0286 438.415 148.38 470.553C232.648 508.513 319.223 541.805 411.437 511.566C557.907 463.526 646.071 333.076 765.605 246.538C959.156 106.393 1015.46 405.123 1174.36 445.418C1254.81 465.808 1301.43 406.688 1369.84 379.654C1462.28 343.105 1548.65 411.33 1620.36 463.013" stroke="url(#paint1_linear_284_58)" stroke-miterlimit="10"/>
<path d="M-301.82 349.697C-230.572 317.405 -159.579 307.351 -84.332 332.589C-10.2128 357.443 49.9899 409.766 118.266 445.982C197.69 488.123 279.421 530.417 370.815 503.435C524.051 458.242 620.237 311.737 739.156 216.939C941.933 55.2753 975.584 380.372 1141.71 417.794C1226.95 437.005 1280.03 368.446 1353.23 341.72C1451.69 305.786 1546.14 384.297 1620.33 439.236" stroke="url(#paint2_linear_284_58)" stroke-miterlimit="10"/>
<path d="M-301.82 317.815C-137.154 229.327 -38.2509 334 95.866 418.589C172.036 466.629 254.049 522.21 347.39 491.278C498.55 441.186 597.991 290.577 712.578 190.418C786.544 125.784 857.357 110.779 920.712 192.547C975.661 263.44 1010.95 365.548 1108.73 386.092C1193.87 403.969 1253.99 333.795 1327.04 305.196C1434.52 263.081 1540.94 355.16 1620.36 415.511" stroke="url(#paint3_linear_284_58)" stroke-miterlimit="10"/>
<path d="M-301.82 288.165C-142.331 187.853 -42.9411 292.013 82.8464 386.554C149.943 436.979 225.908 506.821 316.558 483.147C371.737 468.732 420.663 427.771 462.797 391.607C543.785 322.124 611.01 240.151 687.898 166.745C761.607 96.3645 834.265 68.6639 897.466 161.512C944.573 230.712 980.71 337.616 1075.41 352.723C1165.44 367.087 1231.34 289.781 1310.3 263.055C1424.2 224.48 1539.01 328.152 1620.36 391.709" stroke="url(#paint4_linear_284_58)" stroke-miterlimit="10"/>
<path d="M-301.82 261.286C-239.644 216.529 -171.035 188.443 -95.2756 215.708C-27.8199 239.997 24.6171 296.424 76.4647 343.438C134.899 396.429 208.711 490.508 298.412 472.015C348.902 461.602 393.317 422.924 431.043 389.991C514.312 317.277 587.303 233.046 662.166 152.022C732.236 76.1533 809.892 21.5729 875.246 127.169C919.251 198.241 953.415 310.659 1053.21 314.609C1141.79 318.123 1208.35 247.333 1288.18 221.222C1410.64 181.185 1534.86 298.861 1620.39 367.984" stroke="url(#paint5_linear_284_58)" stroke-miterlimit="10"/>
<path d="M-301.82 236.612C-238.004 186.853 -166.909 153.818 -86.3055 182.493C-18.2859 206.68 38.0468 261.824 88.331 311.403C140.614 362.983 210.787 464.295 296.388 447.008C344.289 437.338 386.423 398.583 421.74 367.138C502.497 295.193 574.617 213.169 647.583 133.581C714.398 60.7128 792.874 -5.71736 859.151 99.391C902.515 168.155 935.449 277.906 1033.38 279.265C1121.18 280.471 1194.4 216.683 1276.39 194.83C1404 160.794 1528.71 272.366 1620.36 343.644" stroke="url(#paint6_linear_284_58)" stroke-miterlimit="10"/>
<path d="M-301.82 209.116C-231.417 153.689 -156.298 123.886 -70.236 162.359C0.935892 194.189 63.2658 254.412 118.343 307.735C167.756 355.596 228.983 436.364 306.896 411.202C354.438 395.839 395.777 354.801 431.248 321.816C502.343 255.72 568.415 184.134 635.486 114.011C699.405 47.1446 776.959 -17.9004 845.67 75.3326C894.545 141.66 925.658 247.743 1023.23 252.591C1110.14 256.9 1194.17 199.524 1277.96 184.134C1404.67 160.845 1522.51 248.256 1620.39 315.61" stroke="url(#paint7_linear_284_58)" stroke-miterlimit="10"/>
<path d="M-301.82 178.569C-226.112 120.757 -148.969 95.3386 -60.5226 140.993C7.24065 175.952 69.7756 232.251 125.519 283.626C177.469 331.512 241.26 414.024 319.762 377.5C360.742 358.443 394.47 322.15 426.66 291.449C494.372 226.814 558.419 158.281 624.542 92.0556C692.946 23.5479 770.449 -29.5705 841.416 61.508C890.265 124.219 925.453 222.941 1018.08 227.045C1103.29 230.841 1187.95 189.982 1271.11 176.389C1399.49 155.408 1513.46 220.915 1620.39 284.036" stroke="url(#paint8_linear_284_58)" stroke-miterlimit="10"/>
<path d="M-301.82 145.533C-214.502 82.4886 -131.208 68.2279 -38.2253 126.886C28.5897 169.027 90.3557 226.121 150.148 277.598C200.074 320.585 256.227 388.067 326.092 348.979C363.51 328.049 394.65 290.73 424.456 260.542C487.914 196.241 549.706 130.375 615.008 67.9202C682.669 3.2085 760.12 -43.4978 832.138 38.2703C885.908 99.3142 923.147 196.677 1015.54 205.5C1096.96 213.271 1185.69 181.416 1265.78 169.002C1393.77 149.175 1506.39 194.445 1620.33 249.718" stroke="url(#paint9_linear_284_58)" stroke-miterlimit="10"/>
<path d="M-301.82 110.625C-207.223 46.9394 -120.238 40.1169 -25.4364 106.752C46.0943 157.024 110.372 220.555 178.392 275.649C225.165 313.506 276.91 365.419 335.37 321.919C374.018 293.167 405.568 249.846 437.655 214.554C491.912 154.92 547.527 96.0823 607.217 41.861C680.363 -24.5948 759.685 -55.9888 833.343 24.1121C887.266 82.745 928.58 174.26 1017.18 184.186C1101.04 193.573 1191.71 171.541 1274.78 160.127C1396.93 143.353 1505.64 170.669 1620.36 213.169" stroke="url(#paint10_linear_284_58)" stroke-miterlimit="10"/>
<path d="M-301.82 74.3836C-193.973 6.90187 -102.298 14.0835 -3.29292 93.1841C71.8259 153.202 135.847 223.043 214.144 279.676C267.863 318.508 306.588 340.438 355.617 286.319C438.937 194.343 506.418 89.5163 604.039 10.2106C675.698 -47.9863 754.533 -69.6851 825.936 -1.94692C886.266 55.2753 926.863 143.122 1013.95 163.744C1094.35 182.749 1195.25 164 1276.08 152.971C1395.39 136.684 1503.06 146.251 1620.39 175.183" stroke="url(#paint11_linear_284_58)" stroke-miterlimit="10"/>
<path d="M-301.82 37.4238C-181.056 -33.0845 -82.7174 -10.1802 19.1069 80.0776C92.0472 144.738 152.711 219.607 235.493 272.725C296.26 311.737 328.245 318.636 369.815 256.515C435.682 158.101 501.984 57.5067 597.939 -15.0791C675.519 -73.789 754.123 -86.9724 829.934 -19.2855C893.058 37.0904 937.986 127.784 1027.25 147.739C1106.42 165.436 1198.81 157.024 1278.62 146.149C1394.49 130.349 1503.34 123.219 1620.39 136.274" stroke="url(#paint12_linear_284_58)" stroke-miterlimit="10"/>
<path d="M-301.82 0.335817C-170.189 -72.3782 -67.2118 -36.547 37.1241 62.9443C110.961 133.35 171.831 219.35 262.737 269.262C330.218 306.325 353.899 287.063 386.09 223.531C437.296 122.501 502.061 20.3931 596.914 -45.4214C677.21 -101.156 758.429 -102.875 833.855 -38.8297C899.645 17.0588 947.571 105.393 1035.71 130.17C1224.75 183.314 1430.47 103.88 1620.39 97.2879" stroke="url(#paint13_linear_284_58)" stroke-miterlimit="10"/>
<path d="M-301.82 -36.3162C-236.338 -71.2241 -174.777 -91.9482 -101.504 -66.5304C-40.8908 -45.4984 8.75275 -1.35703 53.2192 43.6051C126.57 117.832 189.284 217.708 287.008 261.824C360.307 294.911 377.658 250.334 402.39 188.136C442.704 86.6693 503.573 -17.2849 598.683 -76.6873C805.971 -206.188 880.782 55.8396 1045.7 112.651C1238.31 179.005 1432.04 95.2873 1620.39 58.7892" stroke="url(#paint14_linear_284_58)" stroke-miterlimit="10"/>
<path d="M-301.82 -71.9422C-233.519 -108.107 -170.574 -128.267 -95.9676 -100.797C-33.3814 -77.7644 17.2104 -30.6991 62.5482 16.9818C133.848 91.953 207.583 221.735 313.944 251.59C388.396 272.494 400.134 202.781 418.997 146.662C452.008 48.4272 508.904 -59.8873 604.091 -111.852C801.691 -219.73 901.208 22.8297 1050.4 91.3887C1246.12 181.339 1435.65 89.106 1620.36 21.4447" stroke="url(#paint15_linear_284_58)" stroke-miterlimit="10"/>
<path d="M-301.82 -105.927C-232.852 -143.476 -170.728 -163.867 -94.8143 -137.269C-31.8693 -115.212 19.5682 -65.9917 64.3166 -18.0287C136.924 59.8151 214.759 207.68 327.655 229.738C404.389 244.742 415.153 168.027 431.914 110.42C460.696 11.5956 512.518 -97.7961 611.984 -143.759C809.866 -235.196 916.586 -2.33168 1062.54 72.9729C1138.53 112.164 1236.92 132.247 1321.58 118.602C1428.89 101.315 1527.02 37.6803 1620.39 -13.9505" stroke="url(#paint16_linear_284_58)" stroke-miterlimit="10"/>
<path d="M-301.82 -137.731C-228.367 -180.231 -157.375 -204.726 -76.0538 -167.997C-15.031 -140.424 33.3823 -89.7424 77.1311 -40.5482C142.69 33.1662 225.318 188.469 335.6 200.114C418.613 208.885 429.095 118.166 446.882 56.9168C474.382 -37.7525 523.897 -139.244 623.569 -175.768C819.964 -247.764 933.526 -31.8789 1075.23 52.4796C1146.84 95.1078 1240.43 124.296 1324.19 113.857C1436.39 99.8528 1533.5 18.5977 1620.33 -46.9347" stroke="url(#paint17_linear_284_58)" stroke-miterlimit="10"/>
<path d="M-301.82 -166.74C-232.468 -210.958 -164.192 -241.737 -82.2561 -208.624C-16.5944 -182.078 35.6889 -125.728 80.7961 -73.0708C145.279 2.20816 226.369 156.767 340.931 159.486C422.611 161.41 437.732 69.3821 457.005 7.92782C486.812 -87.0236 533.944 -179.128 638.485 -205.982C838.673 -257.434 949.827 -60.0412 1093.07 34.6538C1163.19 81.0266 1256.71 119.269 1342.13 106.932C1453.85 90.7731 1543.6 -2.15213 1620.36 -76.6872" stroke="url(#paint18_linear_284_58)" stroke-miterlimit="10"/>
<path d="M-301.82 -192.363C-238.158 -238.556 -172.035 -277.26 -91.0725 -250.124C-27.9737 -228.989 21.7211 -177.23 64.1885 -128.139C133.746 -47.7555 203.713 95.2359 323.452 104.367C414.487 111.292 438.142 22.7527 464.335 -47.2938C500.062 -142.861 549.859 -223.783 659.27 -238.582C853.231 -264.82 964.999 -97.9244 1099.76 7.13268C1167.31 59.7895 1258.79 110.215 1347.18 101.597C1464.43 90.1575 1550.73 -18.952 1620.36 -102.592" stroke="url(#paint19_linear_284_58)" stroke-miterlimit="10"/>
<path d="M-301.82 -212.574C-238.465 -256.818 -173.137 -293.239 -93.7891 -267.385C-31.9974 -247.251 17.1847 -197.775 59.1395 -150.171C126.723 -73.5324 198.254 73.5885 314.559 77.6154C404.491 80.7189 435.272 1.00268 467.513 -69.0696C508.853 -158.866 564.801 -241.07 670.906 -255.407C858.075 -280.697 974.994 -124.779 1107.83 -25.0564C1173 23.8557 1264.94 73.6141 1348.64 71.9726C1465.66 69.6642 1552.34 -41.728 1620.36 -123.034" stroke="url(#paint20_linear_284_58)" stroke-miterlimit="10"/>
<path d="M-301.82 -226.399C-239.465 -269.104 -175.085 -304.525 -97.3003 -280.979C-37.2002 -262.794 11.2644 -216.473 52.5528 -171.126C119.06 -98.0526 190.283 47.5294 302.821 48.2219C391.062 48.7605 428.634 -21.5169 467.154 -89.9733C514.209 -173.588 575.975 -253.817 678.312 -267.873C858.715 -292.624 980.581 -152.787 1113.49 -59.7078C1178.03 -14.5148 1268.96 35.9105 1348.82 43.0409C1465.25 53.4286 1553.34 -59.0666 1620.33 -137.449" stroke="url(#paint21_linear_284_58)" stroke-miterlimit="10"/>
<path d="M-301.82 -234.965C-242.002 -275.875 -178.058 -311.245 -103.349 -292.265C-39.6605 -276.106 10.9312 -227.912 54.2956 -181.257C120.214 -110.338 186.311 21.3934 296.439 16.4945C379.759 12.8011 422.227 -50.4999 465.745 -112.801C519.181 -189.336 583.69 -261.101 681.542 -275.003C859.228 -300.267 983.708 -179.385 1121.95 -93.1537C1185.82 -53.2956 1266.86 -6.02506 1340.44 13.0319C1459.72 43.9129 1550.55 -67.941 1620.36 -146.939" stroke="url(#paint22_linear_284_58)" stroke-miterlimit="10"/>
<path d="M-301.82 -239.377C-243.642 -279.671 -181.056 -315.81 -107.578 -300.857C-46.401 -288.392 3.3194 -245.507 45.9405 -202.443C112.781 -134.936 175.009 -13.6941 281.702 -18.4391C362.639 -22.0299 411.309 -75.3279 460.824 -132.755C520.155 -201.545 588.636 -266.898 682.72 -280.594C852.897 -305.371 983.298 -208.727 1123.16 -131.832C1192.56 -93.6667 1265.55 -47.0118 1338.41 -16.1307C1455.72 33.6021 1547.93 -74.0198 1620.33 -152.53" stroke="url(#paint23_linear_284_58)" stroke-miterlimit="10"/>
</g>
</g>
<rect x="0.5" y="0.5" width="649" height="265" rx="11.5" stroke="#262626"/>
<defs>
<linearGradient id="paint0_linear_284_58" x1="659.27" y1="250.197" x2="659.27" y2="534.293" gradientUnits="userSpaceOnUse">
<stop stop-color="#333333"/>
<stop offset="1" stop-color="#333333" stop-opacity="0"/>
</linearGradient>
<linearGradient id="paint1_linear_284_58" x1="659.27" y1="209.397" x2="659.27" y2="523.325" gradientUnits="userSpaceOnUse">
<stop stop-color="#333333"/>
<stop offset="1" stop-color="#333333" stop-opacity="0"/>
</linearGradient>
<linearGradient id="paint2_linear_284_58" x1="659.257" y1="172.147" x2="659.257" y2="511.924" gradientUnits="userSpaceOnUse">
<stop stop-color="#333333"/>
<stop offset="1" stop-color="#333333" stop-opacity="0"/>
</linearGradient>
<linearGradient id="paint3_linear_284_58" x1="659.27" y1="136.476" x2="659.27" y2="500.208" gradientUnits="userSpaceOnUse">
<stop stop-color="#333333"/>
<stop offset="1" stop-color="#333333" stop-opacity="0"/>
</linearGradient>
<linearGradient id="paint4_linear_284_58" x1="659.27" y1="102.304" x2="659.27" y2="487.902" gradientUnits="userSpaceOnUse">
<stop stop-color="#333333"/>
<stop offset="1" stop-color="#333333" stop-opacity="0"/>
</linearGradient>
<linearGradient id="paint5_linear_284_58" x1="659.283" y1="68.4487" x2="659.283" y2="474.387" gradientUnits="userSpaceOnUse">
<stop stop-color="#333333"/>
<stop offset="1" stop-color="#333333" stop-opacity="0"/>
</linearGradient>
<linearGradient id="paint6_linear_284_58" x1="659.27" y1="44.8047" x2="659.27" y2="448.968" gradientUnits="userSpaceOnUse">
<stop stop-color="#333333"/>
<stop offset="1" stop-color="#333333" stop-opacity="0"/>
</linearGradient>
<linearGradient id="paint7_linear_284_58" x1="659.283" y1="28.8783" x2="659.283" y2="415.95" gradientUnits="userSpaceOnUse">
<stop stop-color="#333333"/>
<stop offset="1" stop-color="#333333" stop-opacity="0"/>
</linearGradient>
<linearGradient id="paint8_linear_284_58" x1="659.283" y1="13.0766" x2="659.283" y2="386.564" gradientUnits="userSpaceOnUse">
<stop stop-color="#333333"/>
<stop offset="1" stop-color="#333333" stop-opacity="0"/>
</linearGradient>
<linearGradient id="paint9_linear_284_58" x1="659.257" y1="-5.35193" x2="659.257" y2="360.719" gradientUnits="userSpaceOnUse">
<stop stop-color="#333333"/>
<stop offset="1" stop-color="#333333" stop-opacity="0"/>
</linearGradient>
<linearGradient id="paint10_linear_284_58" x1="659.27" y1="-23.4747" x2="659.27" y2="338.442" gradientUnits="userSpaceOnUse">
<stop stop-color="#333333"/>
<stop offset="1" stop-color="#333333" stop-opacity="0"/>
</linearGradient>
<linearGradient id="paint11_linear_284_58" x1="659.283" y1="-43.9317" x2="659.283" y2="318.652" gradientUnits="userSpaceOnUse">
<stop stop-color="#333333"/>
<stop offset="1" stop-color="#333333" stop-opacity="0"/>
</linearGradient>
<linearGradient id="paint12_linear_284_58" x1="659.283" y1="-64.804" x2="659.283" y2="302.626" gradientUnits="userSpaceOnUse">
<stop stop-color="#333333"/>
<stop offset="1" stop-color="#333333" stop-opacity="0"/>
</linearGradient>
<linearGradient id="paint13_linear_284_58" x1="659.283" y1="-87.0615" x2="659.283" y2="288.007" gradientUnits="userSpaceOnUse">
<stop stop-color="#333333"/>
<stop offset="1" stop-color="#333333" stop-opacity="0"/>
</linearGradient>
<linearGradient id="paint14_linear_284_58" x1="659.283" y1="-112.207" x2="659.283" y2="273.063" gradientUnits="userSpaceOnUse">
<stop stop-color="#333333"/>
<stop offset="1" stop-color="#333333" stop-opacity="0"/>
</linearGradient>
<linearGradient id="paint15_linear_284_58" x1="659.27" y1="-139.107" x2="659.27" y2="255.385" gradientUnits="userSpaceOnUse">
<stop stop-color="#333333"/>
<stop offset="1" stop-color="#333333" stop-opacity="0"/>
</linearGradient>
<linearGradient id="paint16_linear_284_58" x1="659.283" y1="-164.716" x2="659.283" y2="231.644" gradientUnits="userSpaceOnUse">
<stop stop-color="#333333"/>
<stop offset="1" stop-color="#333333" stop-opacity="0"/>
</linearGradient>
<linearGradient id="paint17_linear_284_58" x1="659.257" y1="-190.23" x2="659.257" y2="200.705" gradientUnits="userSpaceOnUse">
<stop stop-color="#333333"/>
<stop offset="1" stop-color="#333333" stop-opacity="0"/>
</linearGradient>
<linearGradient id="paint18_linear_284_58" x1="659.27" y1="-222.544" x2="659.27" y2="159.516" gradientUnits="userSpaceOnUse">
<stop stop-color="#333333"/>
<stop offset="1" stop-color="#333333" stop-opacity="0"/>
</linearGradient>
<linearGradient id="paint19_linear_284_58" x1="659.27" y1="-259.109" x2="659.27" y2="104.749" gradientUnits="userSpaceOnUse">
<stop stop-color="#333333"/>
<stop offset="1" stop-color="#333333" stop-opacity="0"/>
</linearGradient>
<linearGradient id="paint20_linear_284_58" x1="659.27" y1="-276.004" x2="659.27" y2="77.7032" gradientUnits="userSpaceOnUse">
<stop stop-color="#333333"/>
<stop offset="1" stop-color="#333333" stop-opacity="0"/>
</linearGradient>
<linearGradient id="paint21_linear_284_58" x1="659.257" y1="-288.508" x2="659.257" y2="48.225" gradientUnits="userSpaceOnUse">
<stop stop-color="#333333"/>
<stop offset="1" stop-color="#333333" stop-opacity="0"/>
</linearGradient>
<linearGradient id="paint22_linear_284_58" x1="659.27" y1="-297.532" x2="659.27" y2="18.2908" gradientUnits="userSpaceOnUse">
<stop stop-color="#333333"/>
<stop offset="1" stop-color="#333333" stop-opacity="0"/>
</linearGradient>
<linearGradient id="paint23_linear_284_58" x1="659.257" y1="-304.303" x2="659.257" y2="-3.47781" gradientUnits="userSpaceOnUse">
<stop stop-color="#333333"/>
<stop offset="1" stop-color="#333333" stop-opacity="0"/>
</linearGradient>
<clipPath id="clip0_284_58">
<rect width="650" height="266" rx="12" fill="white"/>
</clipPath>
<clipPath id="clip1_284_58">
<rect width="1924" height="1286" fill="white" transform="translate(-302.668 -608)"/>
</clipPath>
</defs>
</svg>
