<svg xmlns="http://www.w3.org/2000/svg" xmlns:xlink="http://www.w3.org/1999/xlink" width="1920" zoomAndPan="magnify" viewBox="0 0 1440 2015.999918" height="2688" preserveAspectRatio="xMidYMid meet" version="1.0"><defs><filter x="0%" y="0%" width="100%" height="100%" id="f763b27825"><feColorMatrix values="0 0 0 0 1 0 0 0 0 1 0 0 0 0 1 0 0 0 1 0" color-interpolation-filters="sRGB"/></filter><g/><mask id="8ea2aa630a"><g filter="url(#f763b27825)"><rect x="-144" width="1728" fill="#000000" y="-201.599992" height="2419.199902" fill-opacity="0.38"/></g></mask><clipPath id="350be0ef07"><path d="M 0.441406 0.761719 L 1377.558594 0.761719 L 1377.558594 831 L 0.441406 831 Z M 0.441406 0.761719 " clip-rule="nonzero"/></clipPath><clipPath id="7c66e48f35"><rect x="0" width="1378" y="0" height="835"/></clipPath></defs><rect x="-144" width="1728" fill="#ffffff" y="-201.599992" height="2419.199902" fill-opacity="1"/><rect x="-144" width="1728" fill="#222220" y="-201.599992" height="2419.199902" fill-opacity="1"/><g mask="url(#8ea2aa630a)"><g transform="matrix(1, 0, 0, 1, 31, 503)"><g clip-path="url(#7c66e48f35)"><path fill="#000000" d="M 669.992188 126.941406 L 670.300781 486.589844 C 670.300781 487.824219 669.375 488.75 668.140625 488.75 C 667.832031 488.75 667.832031 488.75 667.519531 488.75 L 619.320312 476.699219 C 618.394531 476.390625 617.777344 475.773438 617.777344 474.847656 L 617.777344 155.058594 C 617.777344 154.132812 618.085938 153.515625 618.703125 153.203125 L 666.902344 125.089844 C 667.210938 125.089844 667.519531 124.777344 668.140625 124.777344 C 669.066406 124.777344 669.992188 125.707031 669.992188 126.941406 Z M 669.992188 126.941406 " fill-opacity="1" fill-rule="evenodd"/><path fill="#000000" d="M 601.710938 317.886719 L 601.710938 469.285156 C 601.710938 470.832031 600.78125 472.066406 599.238281 472.066406 C 598.929688 472.066406 598.929688 471.757812 598.621094 471.757812 L 551.039062 459.707031 C 549.800781 459.398438 548.875 458.472656 548.875 457.234375 L 548.875 290.082031 C 548.875 288.535156 550.109375 287.300781 551.65625 287.300781 C 551.964844 287.300781 552.582031 287.300781 552.890625 287.609375 L 600.472656 315.726562 C 601.402344 316.035156 601.710938 316.960938 601.710938 317.886719 Z M 601.710938 317.886719 " fill-opacity="1" fill-rule="evenodd"/><path fill="#000000" d="M 796.054688 592.257812 C 796.054688 592.875 795.128906 593.800781 794.199219 594.730469 C 708.921875 662.703125 623.648438 730.988281 538.0625 798.960938 C 536.207031 800.507812 533.117188 800.507812 531.261719 798.960938 L 333.210938 644.78125 C 331.355469 643.238281 328.578125 643.238281 326.722656 644.78125 C 270.179688 694.527344 216.109375 742.109375 164.203125 787.21875 C 157.714844 793.089844 145.355469 792.164062 137.011719 792.78125 C 136.085938 792.78125 135.160156 792.164062 135.160156 790.929688 C 135.160156 790.617188 135.46875 790 135.777344 789.691406 L 198.1875 735.003906 C 199.734375 733.457031 200.96875 730.988281 200.96875 728.824219 L 202.207031 671.664062 C 202.207031 670.429688 202.824219 669.808594 204.058594 669.808594 L 274.816406 669.808594 C 276.976562 669.808594 279.140625 668.882812 280.683594 667.339844 L 326.105469 622.535156 C 327.648438 621.300781 329.503906 620.375 331.664062 620.992188 L 534.972656 656.523438 C 536.824219 656.832031 538.371094 656.832031 539.914062 655.90625 L 886.273438 481.335938 C 888.746094 480.101562 890.601562 480.410156 892.453125 482.261719 C 907.902344 497.710938 924.898438 511.613281 940.964844 526.136719 C 947.453125 532.007812 954.25 537.878906 960.738281 543.75 C 981.4375 561.976562 1002.757812 580.824219 1025.621094 600.601562 C 1027.167969 602.144531 1029.328125 602.761719 1031.492188 602.761719 L 1164.042969 597.199219 C 1165.277344 597.199219 1165.898438 598.128906 1165.898438 599.054688 L 1165.898438 712.449219 C 1165.898438 714.609375 1166.824219 716.464844 1168.367188 717.699219 C 1189.378906 737.476562 1210.699219 757.558594 1232.636719 777.640625 C 1233.253906 777.949219 1233.253906 778.570312 1233.253906 779.1875 C 1233.253906 780.113281 1232.636719 780.730469 1232.015625 780.730469 L 1193.394531 779.1875 C 1191.234375 779.1875 1189.378906 778.261719 1187.523438 777.023438 C 1105.027344 708.121094 1023.769531 640.457031 943.746094 573.71875 C 923.96875 557.652344 905.429688 541.894531 888.128906 526.445312 C 885.65625 524.28125 882.875 523.972656 880.09375 526.136719 L 797.910156 591.949219 C 797.910156 591.949219 797.597656 592.257812 797.289062 592.257812 C 796.980469 592.257812 796.671875 592.257812 796.363281 592.257812 C 796.054688 592.257812 796.054688 592.257812 796.054688 592.257812 Z M 796.054688 592.257812 " fill-opacity="1" fill-rule="evenodd"/><path fill="#000000" d="M 540.53125 482.261719 L 741.675781 531.699219 C 742.601562 532.007812 743.21875 532.933594 743.21875 533.859375 C 743.21875 534.480469 742.910156 535.097656 742.292969 535.714844 L 639.40625 587.621094 C 639.09375 587.933594 638.785156 587.933594 638.476562 587.933594 C 637.859375 587.933594 637.550781 587.621094 636.933594 587.3125 L 537.132812 505.125 C 536.824219 504.816406 536.515625 504.507812 535.898438 504.507812 C 535.589844 504.507812 534.972656 504.816406 534.664062 505.125 L 407.984375 615.738281 C 407.671875 616.046875 407.363281 616.355469 406.746094 616.355469 C 406.746094 616.355469 406.4375 616.355469 406.4375 616.355469 L 383.574219 612.648438 C 382.648438 612.648438 382.027344 611.722656 382.027344 610.796875 C 382.027344 610.179688 382.335938 609.558594 382.648438 609.25 L 538.679688 482.570312 C 539.296875 482.261719 539.605469 482.261719 540.222656 482.261719 C 540.222656 482.261719 540.53125 482.261719 540.53125 482.261719 Z M 540.53125 482.261719 " fill-opacity="1" fill-rule="evenodd"/><path fill="#ffffff" d="M 306.949219 783.820312 L 328.886719 783.820312 L 328.886719 805.757812 L 306.949219 805.757812 Z M 328.886719 812.246094 L 328.886719 833.875 L 306.949219 833.875 L 306.949219 812.246094 Z M 335.375 783.820312 L 357.3125 783.820312 L 357.3125 805.757812 L 335.375 805.757812 Z M 357.3125 812.246094 L 357.3125 833.875 L 335.375 833.875 L 335.375 812.246094 Z M 357.3125 812.246094 " fill-opacity="1" fill-rule="evenodd"/><g clip-path="url(#350be0ef07)"><path fill="#ffffff" d="M 842.402344 693.292969 L 881.023438 693.292969 L 881.023438 731.914062 L 842.402344 731.914062 Z M 336.609375 731.296875 C 336.300781 730.988281 335.683594 730.988281 335.375 731.296875 L 202.515625 829.242188 C 201.898438 829.859375 200.96875 830.167969 200.042969 830.167969 C 136.703125 830.167969 73.980469 830.167969 11.257812 830.167969 C 8.167969 829.859375 5.082031 829.859375 1.679688 829.242188 C 0.136719 829.242188 0.136719 828.933594 1.679688 828.621094 L 162.964844 806.375 C 163.894531 806.066406 164.820312 805.757812 165.746094 805.140625 L 334.753906 674.753906 C 335.066406 674.445312 335.375 674.445312 335.992188 674.445312 C 336.609375 674.445312 336.917969 674.445312 337.226562 674.753906 L 522.921875 828.003906 C 524.464844 829.550781 524.464844 830.167969 521.996094 830.167969 L 470.085938 830.167969 C 468.851562 830.167969 467.921875 829.859375 466.6875 828.933594 Z M 533.425781 545.292969 L 445.675781 622.847656 C 445.367188 623.15625 445.058594 623.15625 444.441406 623.15625 L 426.519531 620.066406 C 425.59375 620.066406 425.285156 619.445312 425.285156 618.519531 C 425.285156 618.210938 425.285156 617.902344 425.59375 617.59375 L 533.425781 523.972656 C 533.734375 523.972656 534.042969 523.664062 534.351562 523.664062 C 534.972656 523.664062 535.28125 523.972656 535.589844 523.972656 L 621.792969 594.109375 C 622.101562 594.421875 622.410156 594.730469 622.410156 595.347656 C 622.410156 595.65625 622.101562 596.273438 621.484375 596.582031 L 606.34375 604.308594 C 606.035156 604.308594 605.726562 604.308594 605.417969 604.308594 C 605.109375 604.308594 604.800781 604.308594 604.492188 604 L 535.589844 545.292969 C 535.28125 544.984375 534.972656 544.984375 534.664062 544.984375 C 534.042969 544.984375 533.734375 544.984375 533.425781 545.292969 Z M 884.421875 613.886719 C 883.804688 613.578125 883.183594 613.578125 882.566406 613.886719 L 626.425781 828.621094 C 625.191406 829.550781 623.957031 830.167969 622.410156 830.167969 L 565.25 830.167969 C 562.777344 830.167969 562.46875 829.242188 564.632812 827.695312 L 882.566406 563.214844 C 883.183594 562.597656 883.496094 562.597656 884.113281 563.214844 L 1170.222656 798.652344 C 1171.457031 799.578125 1172.695312 800.195312 1174.238281 800.507812 L 1376 828.933594 C 1377.851562 828.933594 1377.851562 829.242188 1376 829.550781 C 1371.984375 829.859375 1368.273438 830.167969 1364.566406 830.167969 C 1289.796875 830.167969 1214.40625 830.167969 1138.707031 830.167969 C 1136.851562 830.167969 1135.308594 829.550781 1134.074219 828.3125 Z M 916.863281 471.140625 L 916.554688 305.839844 C 916.554688 305.527344 917.171875 304.910156 917.789062 304.910156 C 917.789062 304.910156 918.097656 304.910156 918.097656 305.21875 L 976.804688 341.371094 C 977.113281 341.679688 977.113281 341.988281 977.113281 342.296875 L 977.113281 523.046875 C 977.113281 523.664062 976.804688 523.972656 976.1875 523.972656 C 975.878906 523.972656 975.570312 523.972656 975.570312 523.664062 L 917.171875 471.757812 C 916.863281 471.449219 916.863281 471.140625 916.863281 471.140625 Z M 869.898438 334.265625 L 869.589844 461.5625 C 869.589844 462.179688 869.589844 462.488281 868.972656 462.488281 L 826.023438 484.425781 C 826.023438 484.425781 825.714844 484.425781 825.714844 484.425781 C 825.097656 484.425781 824.480469 483.808594 824.480469 483.1875 L 824.480469 180.394531 C 824.480469 179.777344 825.097656 179.160156 825.714844 179.160156 C 825.714844 179.160156 826.023438 179.160156 826.023438 179.46875 L 894.617188 215.925781 C 894.925781 215.925781 895.234375 216.542969 895.234375 216.851562 L 895.234375 313.871094 C 895.234375 314.179688 895.234375 314.796875 894.925781 314.796875 L 870.207031 333.335938 C 869.898438 333.644531 869.898438 333.953125 869.898438 334.265625 Z M 767.9375 224.269531 L 767.9375 511.925781 C 767.9375 512.542969 767.320312 513.160156 766.703125 513.160156 C 766.703125 513.160156 766.703125 513.160156 766.394531 513.160156 L 700.273438 496.476562 C 699.65625 496.476562 699.34375 495.855469 699.34375 495.238281 L 699.34375 2.117188 C 699.34375 1.5 699.964844 0.878906 700.582031 0.878906 C 700.890625 0.878906 701.199219 0.878906 701.199219 1.1875 L 802.542969 55.878906 C 802.851562 55.878906 803.160156 56.496094 803.160156 56.804688 L 803.160156 194.605469 C 803.160156 194.917969 802.851562 195.226562 802.542969 195.535156 L 768.554688 223.34375 C 768.246094 223.652344 767.9375 223.960938 767.9375 224.269531 Z M 881.023438 743.035156 L 881.023438 781.660156 L 842.402344 781.660156 L 842.402344 743.035156 Z M 892.144531 693.292969 L 930.765625 693.292969 L 930.765625 731.914062 L 892.144531 731.914062 Z M 930.765625 743.035156 L 930.765625 781.660156 L 892.144531 781.660156 L 892.144531 743.035156 Z M 930.765625 743.035156 " fill-opacity="1" fill-rule="evenodd"/></g><path fill="#ffffff" d="M 512.726562 582.0625 L 532.191406 582.0625 L 532.191406 601.527344 L 512.726562 601.527344 Z M 532.191406 607.398438 L 532.191406 626.863281 L 512.726562 626.863281 L 512.726562 607.398438 Z M 537.75 582.0625 L 557.527344 582.0625 L 557.527344 601.527344 L 537.75 601.527344 Z M 557.527344 607.398438 L 557.527344 626.863281 L 537.75 626.863281 L 537.75 607.398438 Z M 557.527344 607.398438 " fill-opacity="1" fill-rule="evenodd"/></g></g></g><g fill="#000000" fill-opacity="0.4"><g transform="translate(320.82368, 1471.890798)"><g><path d="M 90.125 -50.484375 L 37.234375 -28.484375 L 37.234375 -11.703125 C 37.234375 -8.035156 37.441406 -5.332031 37.859375 -3.59375 C 38.285156 -1.851562 38.921875 -0.65625 39.765625 0 L 2.828125 0 C 3.578125 -0.65625 4.1875 -1.851562 4.65625 -3.59375 C 5.125 -5.332031 5.359375 -8.035156 5.359375 -11.703125 L 5.359375 -87.015625 C 5.359375 -90.679688 5.125 -93.382812 4.65625 -95.125 C 4.1875 -96.863281 3.578125 -98.0625 2.828125 -98.71875 L 63.609375 -98.71875 C 70.941406 -98.71875 77.191406 -96.132812 82.359375 -90.96875 C 84.898438 -88.519531 86.828125 -85.671875 88.140625 -82.421875 C 89.460938 -79.179688 90.125 -75.773438 90.125 -72.203125 Z M 37.234375 -98.296875 L 37.234375 -28.90625 L 58.25 -37.796875 L 58.25 -87.015625 C 58.25 -90.210938 57.164062 -92.894531 55 -95.0625 C 52.644531 -97.21875 49.921875 -98.296875 46.828125 -98.296875 Z M 37.234375 -98.296875 "/></g></g></g><g fill="#000000" fill-opacity="0.4"><g transform="translate(413.763707, 1471.890798)"><g><path d="M 71.359375 -62.046875 L 51.046875 -52.046875 C 51.140625 -53.453125 50.925781 -55.234375 50.40625 -57.390625 C 49.894531 -59.554688 49.078125 -61.4375 47.953125 -63.03125 C 46.828125 -64.632812 45.320312 -65.34375 43.4375 -65.15625 C 41.65625 -64.96875 40.175781 -64.210938 39 -62.890625 C 37.820312 -61.578125 37.234375 -60.03125 37.234375 -58.25 L 37.234375 -11.703125 C 37.234375 -8.035156 37.441406 -5.332031 37.859375 -3.59375 C 38.285156 -1.851562 38.921875 -0.65625 39.765625 0 L 2.828125 0 C 3.578125 -0.65625 4.1875 -1.851562 4.65625 -3.59375 C 5.125 -5.332031 5.359375 -8.035156 5.359375 -11.703125 L 5.359375 -78.546875 C 5.359375 -78.546875 5.992188 -78.003906 7.265625 -76.921875 C 8.535156 -75.847656 10.507812 -74.835938 13.1875 -73.890625 C 15.863281 -72.953125 19.363281 -72.769531 23.6875 -73.34375 C 26.039062 -73.625 28.367188 -74.140625 30.671875 -74.890625 C 32.972656 -75.640625 35.160156 -76.53125 37.234375 -77.5625 L 37.234375 -60.78125 C 37.421875 -61.53125 37.609375 -62.304688 37.796875 -63.109375 C 37.984375 -63.910156 38.265625 -64.640625 38.640625 -65.296875 C 40.617188 -69.523438 43.273438 -72.578125 46.609375 -74.453125 C 49.953125 -76.335938 53.40625 -77.09375 56.96875 -76.71875 C 60.539062 -76.34375 63.691406 -74.910156 66.421875 -72.421875 C 69.148438 -69.929688 70.796875 -66.472656 71.359375 -62.046875 Z M 71.359375 -62.046875 "/></g></g></g><g fill="#000000" fill-opacity="0.4"><g transform="translate(487.946496, 1471.890798)"><g><path d="M 47.53125 -80.25 C 53.070312 -80.25 58.265625 -79.210938 63.109375 -77.140625 C 67.953125 -75.078125 72.226562 -72.1875 75.9375 -68.46875 C 79.65625 -64.757812 82.546875 -60.484375 84.609375 -55.640625 C 86.679688 -50.796875 87.71875 -45.597656 87.71875 -40.046875 C 87.71875 -34.503906 86.679688 -29.3125 84.609375 -24.46875 C 82.546875 -19.625 79.65625 -15.367188 75.9375 -11.703125 C 72.226562 -8.035156 67.953125 -5.164062 63.109375 -3.09375 C 58.265625 -1.03125 53.070312 0 47.53125 0 L 42.875 0 C 37.320312 0 32.125 -1.03125 27.28125 -3.09375 C 22.445312 -5.164062 18.195312 -8.035156 14.53125 -11.703125 C 10.863281 -15.367188 7.992188 -19.625 5.921875 -24.46875 C 3.859375 -29.3125 2.828125 -34.503906 2.828125 -40.046875 C 2.828125 -45.597656 3.859375 -50.796875 5.921875 -55.640625 C 7.992188 -60.484375 10.863281 -64.757812 14.53125 -68.46875 C 18.195312 -72.1875 22.445312 -75.078125 27.28125 -77.140625 C 32.125 -79.210938 37.320312 -80.25 42.875 -80.25 Z M 55.84375 -11 L 55.84375 -69.109375 C 55.84375 -72.117188 54.804688 -74.632812 52.734375 -76.65625 C 50.671875 -78.675781 48.179688 -79.6875 45.265625 -79.6875 C 42.359375 -79.6875 39.867188 -78.675781 37.796875 -76.65625 C 35.722656 -74.632812 34.6875 -72.117188 34.6875 -69.109375 L 34.6875 -11 C 34.6875 -8.082031 35.722656 -5.585938 37.796875 -3.515625 C 39.867188 -1.453125 42.359375 -0.421875 45.265625 -0.421875 C 48.179688 -0.421875 50.671875 -1.453125 52.734375 -3.515625 C 54.804688 -5.585938 55.84375 -8.082031 55.84375 -11 Z M 55.84375 -11 "/></g></g></g><g fill="#000000" fill-opacity="0.4"><g transform="translate(578.488985, 1471.890798)"><g><path d="M 67.984375 -80.25 C 73.804688 -80.25 79.09375 -78.4375 83.84375 -74.8125 C 88.59375 -71.195312 92.375 -66.351562 95.1875 -60.28125 C 98.007812 -54.21875 99.421875 -47.472656 99.421875 -40.046875 C 99.421875 -32.710938 98.007812 -26.015625 95.1875 -19.953125 C 92.375 -13.890625 88.59375 -9.046875 83.84375 -5.421875 C 79.09375 -1.804688 73.804688 0 67.984375 0 C 63.742188 0 60.097656 -0.679688 57.046875 -2.046875 C 53.992188 -3.410156 51.429688 -5.101562 49.359375 -7.125 C 47.296875 -9.144531 45.675781 -11.164062 44.5 -13.1875 C 43.320312 -15.207031 42.472656 -16.898438 41.953125 -18.265625 C 41.441406 -19.628906 41.1875 -20.3125 41.1875 -20.3125 L 41.1875 6.765625 C 41.1875 10.429688 41.421875 13.132812 41.890625 14.875 C 42.359375 16.613281 42.96875 17.8125 43.71875 18.46875 L 6.765625 18.46875 C 7.609375 17.8125 8.242188 16.613281 8.671875 14.875 C 9.097656 13.132812 9.3125 10.429688 9.3125 6.765625 L 9.3125 -70.515625 C 9.3125 -72.296875 8.535156 -73.65625 6.984375 -74.59375 C 5.429688 -75.539062 4.046875 -75.40625 2.828125 -74.1875 C 4.796875 -76.34375 7.164062 -78.03125 9.9375 -79.25 C 12.71875 -80.476562 15.5625 -81.046875 18.46875 -80.953125 C 24.019531 -80.953125 28.882812 -79.210938 33.0625 -75.734375 C 37.25 -72.253906 39.816406 -67.835938 40.765625 -62.484375 C 42.453125 -65.203125 44.539062 -67.925781 47.03125 -70.65625 C 49.519531 -73.382812 52.503906 -75.664062 55.984375 -77.5 C 59.460938 -79.332031 63.460938 -80.25 67.984375 -80.25 Z M 50.203125 -13.828125 C 53.210938 -13.828125 56.035156 -14.90625 58.671875 -17.0625 C 61.304688 -19.226562 63.46875 -22.285156 65.15625 -26.234375 C 66.84375 -30.179688 67.6875 -34.785156 67.6875 -40.046875 C 67.6875 -44.191406 67.171875 -47.859375 66.140625 -51.046875 C 65.109375 -54.242188 63.742188 -56.972656 62.046875 -59.234375 C 58.566406 -63.929688 54.382812 -66.28125 49.5 -66.28125 L 49.078125 -66.28125 C 45.878906 -66.09375 43.15625 -64.726562 40.90625 -62.1875 C 41 -61.53125 41.066406 -60.875 41.109375 -60.21875 C 41.160156 -59.5625 41.1875 -58.90625 41.1875 -58.25 L 41.1875 -24.25 C 41.1875 -21.25 42.148438 -18.757812 44.078125 -16.78125 C 46.003906 -14.8125 48.046875 -13.828125 50.203125 -13.828125 Z M 50.203125 -13.828125 "/></g></g></g><g fill="#000000" fill-opacity="0.4"><g transform="translate(680.73711, 1471.890798)"><g><path d="M 65.296875 -49.921875 C 67.554688 -48.984375 70.351562 -47.738281 73.6875 -46.1875 C 77.03125 -44.632812 80.296875 -42.726562 83.484375 -40.46875 C 86.679688 -38.21875 89.359375 -35.5625 91.515625 -32.5 C 93.679688 -29.445312 94.765625 -25.992188 94.765625 -22.140625 C 94.671875 -16.972656 92.765625 -12.4375 89.046875 -8.53125 C 85.335938 -4.625 80.238281 -1.613281 73.75 0.5 C 67.269531 2.613281 59.75 3.671875 51.1875 3.671875 C 44.894531 3.578125 39.328125 3.128906 34.484375 2.328125 C 29.640625 1.523438 24.585938 0.515625 19.328125 -0.703125 L 2.828125 -4.375 L 5.640625 -25.953125 C 5.640625 -25.953125 5.707031 -25.785156 5.84375 -25.453125 C 5.988281 -25.128906 6.15625 -24.585938 6.34375 -23.828125 C 8.226562 -18.847656 11.257812 -14.359375 15.4375 -10.359375 C 19.625 -6.367188 24.421875 -3.171875 29.828125 -0.765625 C 35.234375 1.628906 40.613281 2.875 45.96875 2.96875 C 51.050781 2.96875 55.753906 2.707031 60.078125 2.1875 C 64.398438 1.664062 67.878906 0.773438 70.515625 -0.484375 C 73.148438 -1.753906 74.46875 -3.378906 74.46875 -5.359375 C 74.46875 -7.710938 73.21875 -9.78125 70.71875 -11.5625 C 68.226562 -13.351562 64.984375 -15 60.984375 -16.5 C 56.992188 -18 52.550781 -19.5 47.65625 -21 C 42.769531 -22.507812 37.929688 -24.207031 33.140625 -26.09375 C 30.503906 -27.125 27.585938 -28.34375 24.390625 -29.75 C 21.203125 -31.164062 18.125 -32.953125 15.15625 -35.109375 C 12.195312 -37.273438 9.753906 -39.910156 7.828125 -43.015625 C 5.898438 -46.117188 4.9375 -49.878906 4.9375 -54.296875 C 4.9375 -56.742188 5.359375 -59 6.203125 -61.0625 C 8.367188 -66.894531 13.070312 -71.550781 20.3125 -75.03125 C 27.550781 -78.507812 36.4375 -80.25 46.96875 -80.25 L 79.828125 -79.6875 L 81.375 -57.828125 C 81.375 -57.828125 80.953125 -58.550781 80.109375 -60 C 79.265625 -61.457031 77.945312 -63.269531 76.15625 -65.4375 C 74.375 -67.601562 72.1875 -69.765625 69.59375 -71.921875 C 67.007812 -74.085938 63.976562 -75.921875 60.5 -77.421875 C 57.019531 -78.929688 53.070312 -79.734375 48.65625 -79.828125 C 44.332031 -79.921875 40.3125 -79.539062 36.59375 -78.6875 C 32.882812 -77.84375 29.921875 -76.691406 27.703125 -75.234375 C 25.492188 -73.773438 24.390625 -72.109375 24.390625 -70.234375 C 24.390625 -68.347656 25.707031 -66.535156 28.34375 -64.796875 C 30.976562 -63.054688 34.382812 -61.390625 38.5625 -59.796875 C 42.75 -58.203125 47.21875 -56.582031 51.96875 -54.9375 C 56.71875 -53.289062 61.160156 -51.617188 65.296875 -49.921875 Z M 65.296875 -49.921875 "/></g></g></g><g fill="#000000" fill-opacity="0.4"><g transform="translate(778.331202, 1471.890798)"><g><path d="M 56.546875 -76.859375 L 56.546875 -76.296875 L 42.734375 -76.296875 L 42.734375 -6.625 C 42.734375 -4.9375 43.53125 -3.617188 45.125 -2.671875 C 46.726562 -1.734375 48.09375 -1.878906 49.21875 -3.109375 C 45.082031 1.503906 39.863281 3.8125 33.5625 3.8125 C 29.613281 3.8125 25.898438 2.914062 22.421875 1.125 C 18.941406 -0.65625 16.144531 -3.257812 14.03125 -6.6875 C 11.914062 -10.125 10.859375 -14.191406 10.859375 -18.890625 L 10.859375 -76.296875 L 2.828125 -76.296875 L 2.828125 -76.859375 L 10.859375 -76.859375 C 16.316406 -76.859375 20.898438 -77.46875 24.609375 -78.6875 C 28.328125 -79.914062 31.382812 -81.421875 33.78125 -83.203125 C 36.175781 -84.992188 38.007812 -86.78125 39.28125 -88.5625 C 40.550781 -90.351562 41.441406 -91.859375 41.953125 -93.078125 C 42.472656 -94.296875 42.734375 -94.90625 42.734375 -94.90625 L 42.734375 -76.859375 Z M 56.546875 -76.859375 "/></g></g></g><g fill="#000000" fill-opacity="0.4"><g transform="translate(837.705642, 1471.890798)"><g><path d="M 93.640625 -13.25 C 93.921875 -12.21875 94.53125 -11.394531 95.46875 -10.78125 C 96.414062 -10.175781 97.425781 -9.921875 98.5 -10.015625 C 99.582031 -10.109375 100.363281 -10.625 100.84375 -11.5625 C 99.425781 -8.644531 97.445312 -6.242188 94.90625 -4.359375 C 92.375 -2.484375 89.507812 -1.171875 86.3125 -0.421875 C 82.363281 0.328125 78.554688 0.113281 74.890625 -1.0625 C 71.222656 -2.238281 68.023438 -4.210938 65.296875 -6.984375 C 62.566406 -9.753906 60.6875 -13.113281 59.65625 -17.0625 L 58.390625 -21.71875 C 58.109375 -19.175781 57.398438 -16.78125 56.265625 -14.53125 C 53.828125 -9.539062 50.488281 -5.707031 46.25 -3.03125 C 42.019531 -0.351562 37.484375 1.238281 32.640625 1.75 C 27.804688 2.269531 23.203125 1.707031 18.828125 0.0625 C 14.453125 -1.570312 10.785156 -4.195312 7.828125 -7.8125 C 4.867188 -11.4375 3.25 -16.023438 2.96875 -21.578125 C 2.769531 -26.085938 3.726562 -29.867188 5.84375 -32.921875 C 7.96875 -35.984375 10.789062 -38.476562 14.3125 -40.40625 C 17.84375 -42.332031 21.601562 -43.8125 25.59375 -44.84375 C 29.59375 -45.882812 33.378906 -46.613281 36.953125 -47.03125 C 40.523438 -47.457031 43.460938 -47.71875 45.765625 -47.8125 C 48.066406 -47.90625 49.21875 -47.953125 49.21875 -47.953125 L 51.1875 -47.953125 L 47.390625 -61.484375 C 46.546875 -64.773438 44.804688 -67.21875 42.171875 -68.8125 C 39.535156 -70.414062 36.6875 -71.097656 33.625 -70.859375 C 30.570312 -70.628906 27.921875 -69.242188 25.671875 -66.703125 C 29.148438 -70.648438 33.117188 -73.539062 37.578125 -75.375 C 42.046875 -77.207031 46.609375 -78.078125 51.265625 -77.984375 C 55.921875 -77.890625 60.382812 -76.851562 64.65625 -74.875 C 68.9375 -72.90625 72.648438 -70.109375 75.796875 -66.484375 C 78.953125 -62.867188 81.234375 -58.523438 82.640625 -53.453125 L 88.5625 -32.015625 Z M 49.078125 -11.28125 C 52.273438 -11.75 54.671875 -13.300781 56.265625 -15.9375 C 58.054688 -18.570312 58.484375 -21.441406 57.546875 -24.546875 L 51.1875 -47.53125 C 47.8125 -46.6875 44.828125 -45.015625 42.234375 -42.515625 C 39.648438 -40.023438 37.695312 -37.109375 36.375 -33.765625 C 35.0625 -30.429688 34.5 -26.929688 34.6875 -23.265625 C 34.875 -19.878906 36.238281 -17.007812 38.78125 -14.65625 C 41.320312 -12.3125 44.332031 -11.140625 47.8125 -11.140625 C 48.375 -11.140625 48.796875 -11.1875 49.078125 -11.28125 Z M 49.078125 -11.28125 "/></g></g></g><g fill="#000000" fill-opacity="0.4"><g transform="translate(941.364096, 1471.890798)"><g><path d="M 90.40625 -10.4375 C 92.28125 -7.519531 93.875 -5.238281 95.1875 -3.59375 C 96.507812 -1.945312 97.6875 -0.75 98.71875 0 L 59.234375 0 L 40.609375 -29.046875 L 37.234375 -25.53125 L 37.234375 -11.703125 C 37.234375 -8.035156 37.441406 -5.332031 37.859375 -3.59375 C 38.285156 -1.851562 38.921875 -0.65625 39.765625 0 L 2.828125 0 C 3.578125 -0.65625 4.1875 -1.851562 4.65625 -3.59375 C 5.125 -5.332031 5.359375 -7.988281 5.359375 -11.5625 L 5.640625 -87.296875 C 5.640625 -90.867188 5.453125 -93.5 5.078125 -95.1875 C 4.703125 -96.882812 4.140625 -98.0625 3.390625 -98.71875 L 37.375 -98.71875 L 37.234375 -26.234375 L 62.765625 -52.328125 C 64.921875 -54.578125 65.90625 -57.113281 65.71875 -59.9375 C 65.53125 -62.757812 64.519531 -65.226562 62.6875 -67.34375 C 60.851562 -69.457031 58.382812 -70.515625 55.28125 -70.515625 L 81.09375 -70.515625 L 63.328125 -52.328125 Z M 90.40625 -10.4375 "/></g></g></g><g fill="#000000" fill-opacity="0.4"><g transform="translate(1042.907066, 1471.890798)"><g><path d="M 82.21875 -24.828125 C 83.726562 -26.328125 84.953125 -27.875 85.890625 -29.46875 C 83.441406 -22.519531 79.351562 -16.597656 73.625 -11.703125 C 69.289062 -8.035156 64.488281 -5.191406 59.21875 -3.171875 C 53.957031 -1.148438 48.507812 -0.09375 42.875 0 C 37.320312 0 32.125 -1.03125 27.28125 -3.09375 C 22.445312 -5.164062 18.195312 -8.035156 14.53125 -11.703125 C 10.863281 -15.367188 7.992188 -19.625 5.921875 -24.46875 C 3.859375 -29.3125 2.828125 -34.503906 2.828125 -40.046875 C 2.828125 -45.597656 3.859375 -50.816406 5.921875 -55.703125 C 7.992188 -60.597656 10.863281 -64.878906 14.53125 -68.546875 C 18.195312 -72.210938 22.445312 -75.078125 27.28125 -77.140625 C 32.125 -79.210938 37.320312 -80.25 42.875 -80.25 L 46.546875 -80.25 C 52.742188 -80.25 58.546875 -78.90625 63.953125 -76.21875 C 69.359375 -73.539062 73.960938 -69.875 77.765625 -65.21875 C 81.578125 -60.570312 84.191406 -55.191406 85.609375 -49.078125 L 33.703125 -49.078125 L 33.703125 -46.40625 C 33.703125 -41.507812 34.78125 -36.96875 36.9375 -32.78125 C 39.101562 -28.601562 42.09375 -25.101562 45.90625 -22.28125 C 49.71875 -19.457031 54.019531 -17.71875 58.8125 -17.0625 C 63.132812 -16.40625 67.335938 -16.78125 71.421875 -18.1875 C 75.515625 -19.601562 79.113281 -21.816406 82.21875 -24.828125 Z M 33.703125 -69.25 L 33.703125 -49.640625 L 54.71875 -49.640625 L 54.71875 -69.25 C 54.71875 -72.164062 53.707031 -74.632812 51.6875 -76.65625 C 49.664062 -78.675781 47.195312 -79.6875 44.28125 -79.6875 C 41.363281 -79.6875 38.867188 -78.675781 36.796875 -76.65625 C 34.734375 -74.632812 33.703125 -72.164062 33.703125 -69.25 Z M 33.703125 -69.25 "/></g></g></g><g fill="#ffffff" fill-opacity="1"><g transform="translate(314.590888, 1465.658071)"><g><path d="M 90.125 -50.484375 L 37.234375 -28.484375 L 37.234375 -11.703125 C 37.234375 -8.035156 37.441406 -5.332031 37.859375 -3.59375 C 38.285156 -1.851562 38.921875 -0.65625 39.765625 0 L 2.828125 0 C 3.578125 -0.65625 4.1875 -1.851562 4.65625 -3.59375 C 5.125 -5.332031 5.359375 -8.035156 5.359375 -11.703125 L 5.359375 -87.015625 C 5.359375 -90.679688 5.125 -93.382812 4.65625 -95.125 C 4.1875 -96.863281 3.578125 -98.0625 2.828125 -98.71875 L 63.609375 -98.71875 C 70.941406 -98.71875 77.191406 -96.132812 82.359375 -90.96875 C 84.898438 -88.519531 86.828125 -85.671875 88.140625 -82.421875 C 89.460938 -79.179688 90.125 -75.773438 90.125 -72.203125 Z M 37.234375 -98.296875 L 37.234375 -28.90625 L 58.25 -37.796875 L 58.25 -87.015625 C 58.25 -90.210938 57.164062 -92.894531 55 -95.0625 C 52.644531 -97.21875 49.921875 -98.296875 46.828125 -98.296875 Z M 37.234375 -98.296875 "/></g></g></g><g fill="#ffffff" fill-opacity="1"><g transform="translate(407.530915, 1465.658071)"><g><path d="M 71.359375 -62.046875 L 51.046875 -52.046875 C 51.140625 -53.453125 50.925781 -55.234375 50.40625 -57.390625 C 49.894531 -59.554688 49.078125 -61.4375 47.953125 -63.03125 C 46.828125 -64.632812 45.320312 -65.34375 43.4375 -65.15625 C 41.65625 -64.96875 40.175781 -64.210938 39 -62.890625 C 37.820312 -61.578125 37.234375 -60.03125 37.234375 -58.25 L 37.234375 -11.703125 C 37.234375 -8.035156 37.441406 -5.332031 37.859375 -3.59375 C 38.285156 -1.851562 38.921875 -0.65625 39.765625 0 L 2.828125 0 C 3.578125 -0.65625 4.1875 -1.851562 4.65625 -3.59375 C 5.125 -5.332031 5.359375 -8.035156 5.359375 -11.703125 L 5.359375 -78.546875 C 5.359375 -78.546875 5.992188 -78.003906 7.265625 -76.921875 C 8.535156 -75.847656 10.507812 -74.835938 13.1875 -73.890625 C 15.863281 -72.953125 19.363281 -72.769531 23.6875 -73.34375 C 26.039062 -73.625 28.367188 -74.140625 30.671875 -74.890625 C 32.972656 -75.640625 35.160156 -76.53125 37.234375 -77.5625 L 37.234375 -60.78125 C 37.421875 -61.53125 37.609375 -62.304688 37.796875 -63.109375 C 37.984375 -63.910156 38.265625 -64.640625 38.640625 -65.296875 C 40.617188 -69.523438 43.273438 -72.578125 46.609375 -74.453125 C 49.953125 -76.335938 53.40625 -77.09375 56.96875 -76.71875 C 60.539062 -76.34375 63.691406 -74.910156 66.421875 -72.421875 C 69.148438 -69.929688 70.796875 -66.472656 71.359375 -62.046875 Z M 71.359375 -62.046875 "/></g></g></g><g fill="#ffffff" fill-opacity="1"><g transform="translate(481.713704, 1465.658071)"><g><path d="M 47.53125 -80.25 C 53.070312 -80.25 58.265625 -79.210938 63.109375 -77.140625 C 67.953125 -75.078125 72.226562 -72.1875 75.9375 -68.46875 C 79.65625 -64.757812 82.546875 -60.484375 84.609375 -55.640625 C 86.679688 -50.796875 87.71875 -45.597656 87.71875 -40.046875 C 87.71875 -34.503906 86.679688 -29.3125 84.609375 -24.46875 C 82.546875 -19.625 79.65625 -15.367188 75.9375 -11.703125 C 72.226562 -8.035156 67.953125 -5.164062 63.109375 -3.09375 C 58.265625 -1.03125 53.070312 0 47.53125 0 L 42.875 0 C 37.320312 0 32.125 -1.03125 27.28125 -3.09375 C 22.445312 -5.164062 18.195312 -8.035156 14.53125 -11.703125 C 10.863281 -15.367188 7.992188 -19.625 5.921875 -24.46875 C 3.859375 -29.3125 2.828125 -34.503906 2.828125 -40.046875 C 2.828125 -45.597656 3.859375 -50.796875 5.921875 -55.640625 C 7.992188 -60.484375 10.863281 -64.757812 14.53125 -68.46875 C 18.195312 -72.1875 22.445312 -75.078125 27.28125 -77.140625 C 32.125 -79.210938 37.320312 -80.25 42.875 -80.25 Z M 55.84375 -11 L 55.84375 -69.109375 C 55.84375 -72.117188 54.804688 -74.632812 52.734375 -76.65625 C 50.671875 -78.675781 48.179688 -79.6875 45.265625 -79.6875 C 42.359375 -79.6875 39.867188 -78.675781 37.796875 -76.65625 C 35.722656 -74.632812 34.6875 -72.117188 34.6875 -69.109375 L 34.6875 -11 C 34.6875 -8.082031 35.722656 -5.585938 37.796875 -3.515625 C 39.867188 -1.453125 42.359375 -0.421875 45.265625 -0.421875 C 48.179688 -0.421875 50.671875 -1.453125 52.734375 -3.515625 C 54.804688 -5.585938 55.84375 -8.082031 55.84375 -11 Z M 55.84375 -11 "/></g></g></g><g fill="#ffffff" fill-opacity="1"><g transform="translate(572.256193, 1465.658071)"><g><path d="M 67.984375 -80.25 C 73.804688 -80.25 79.09375 -78.4375 83.84375 -74.8125 C 88.59375 -71.195312 92.375 -66.351562 95.1875 -60.28125 C 98.007812 -54.21875 99.421875 -47.472656 99.421875 -40.046875 C 99.421875 -32.710938 98.007812 -26.015625 95.1875 -19.953125 C 92.375 -13.890625 88.59375 -9.046875 83.84375 -5.421875 C 79.09375 -1.804688 73.804688 0 67.984375 0 C 63.742188 0 60.097656 -0.679688 57.046875 -2.046875 C 53.992188 -3.410156 51.429688 -5.101562 49.359375 -7.125 C 47.296875 -9.144531 45.675781 -11.164062 44.5 -13.1875 C 43.320312 -15.207031 42.472656 -16.898438 41.953125 -18.265625 C 41.441406 -19.628906 41.1875 -20.3125 41.1875 -20.3125 L 41.1875 6.765625 C 41.1875 10.429688 41.421875 13.132812 41.890625 14.875 C 42.359375 16.613281 42.96875 17.8125 43.71875 18.46875 L 6.765625 18.46875 C 7.609375 17.8125 8.242188 16.613281 8.671875 14.875 C 9.097656 13.132812 9.3125 10.429688 9.3125 6.765625 L 9.3125 -70.515625 C 9.3125 -72.296875 8.535156 -73.65625 6.984375 -74.59375 C 5.429688 -75.539062 4.046875 -75.40625 2.828125 -74.1875 C 4.796875 -76.34375 7.164062 -78.03125 9.9375 -79.25 C 12.71875 -80.476562 15.5625 -81.046875 18.46875 -80.953125 C 24.019531 -80.953125 28.882812 -79.210938 33.0625 -75.734375 C 37.25 -72.253906 39.816406 -67.835938 40.765625 -62.484375 C 42.453125 -65.203125 44.539062 -67.925781 47.03125 -70.65625 C 49.519531 -73.382812 52.503906 -75.664062 55.984375 -77.5 C 59.460938 -79.332031 63.460938 -80.25 67.984375 -80.25 Z M 50.203125 -13.828125 C 53.210938 -13.828125 56.035156 -14.90625 58.671875 -17.0625 C 61.304688 -19.226562 63.46875 -22.285156 65.15625 -26.234375 C 66.84375 -30.179688 67.6875 -34.785156 67.6875 -40.046875 C 67.6875 -44.191406 67.171875 -47.859375 66.140625 -51.046875 C 65.109375 -54.242188 63.742188 -56.972656 62.046875 -59.234375 C 58.566406 -63.929688 54.382812 -66.28125 49.5 -66.28125 L 49.078125 -66.28125 C 45.878906 -66.09375 43.15625 -64.726562 40.90625 -62.1875 C 41 -61.53125 41.066406 -60.875 41.109375 -60.21875 C 41.160156 -59.5625 41.1875 -58.90625 41.1875 -58.25 L 41.1875 -24.25 C 41.1875 -21.25 42.148438 -18.757812 44.078125 -16.78125 C 46.003906 -14.8125 48.046875 -13.828125 50.203125 -13.828125 Z M 50.203125 -13.828125 "/></g></g></g><g fill="#ffffff" fill-opacity="1"><g transform="translate(674.504317, 1465.658071)"><g><path d="M 65.296875 -49.921875 C 67.554688 -48.984375 70.351562 -47.738281 73.6875 -46.1875 C 77.03125 -44.632812 80.296875 -42.726562 83.484375 -40.46875 C 86.679688 -38.21875 89.359375 -35.5625 91.515625 -32.5 C 93.679688 -29.445312 94.765625 -25.992188 94.765625 -22.140625 C 94.671875 -16.972656 92.765625 -12.4375 89.046875 -8.53125 C 85.335938 -4.625 80.238281 -1.613281 73.75 0.5 C 67.269531 2.613281 59.75 3.671875 51.1875 3.671875 C 44.894531 3.578125 39.328125 3.128906 34.484375 2.328125 C 29.640625 1.523438 24.585938 0.515625 19.328125 -0.703125 L 2.828125 -4.375 L 5.640625 -25.953125 C 5.640625 -25.953125 5.707031 -25.785156 5.84375 -25.453125 C 5.988281 -25.128906 6.15625 -24.585938 6.34375 -23.828125 C 8.226562 -18.847656 11.257812 -14.359375 15.4375 -10.359375 C 19.625 -6.367188 24.421875 -3.171875 29.828125 -0.765625 C 35.234375 1.628906 40.613281 2.875 45.96875 2.96875 C 51.050781 2.96875 55.753906 2.707031 60.078125 2.1875 C 64.398438 1.664062 67.878906 0.773438 70.515625 -0.484375 C 73.148438 -1.753906 74.46875 -3.378906 74.46875 -5.359375 C 74.46875 -7.710938 73.21875 -9.78125 70.71875 -11.5625 C 68.226562 -13.351562 64.984375 -15 60.984375 -16.5 C 56.992188 -18 52.550781 -19.5 47.65625 -21 C 42.769531 -22.507812 37.929688 -24.207031 33.140625 -26.09375 C 30.503906 -27.125 27.585938 -28.34375 24.390625 -29.75 C 21.203125 -31.164062 18.125 -32.953125 15.15625 -35.109375 C 12.195312 -37.273438 9.753906 -39.910156 7.828125 -43.015625 C 5.898438 -46.117188 4.9375 -49.878906 4.9375 -54.296875 C 4.9375 -56.742188 5.359375 -59 6.203125 -61.0625 C 8.367188 -66.894531 13.070312 -71.550781 20.3125 -75.03125 C 27.550781 -78.507812 36.4375 -80.25 46.96875 -80.25 L 79.828125 -79.6875 L 81.375 -57.828125 C 81.375 -57.828125 80.953125 -58.550781 80.109375 -60 C 79.265625 -61.457031 77.945312 -63.269531 76.15625 -65.4375 C 74.375 -67.601562 72.1875 -69.765625 69.59375 -71.921875 C 67.007812 -74.085938 63.976562 -75.921875 60.5 -77.421875 C 57.019531 -78.929688 53.070312 -79.734375 48.65625 -79.828125 C 44.332031 -79.921875 40.3125 -79.539062 36.59375 -78.6875 C 32.882812 -77.84375 29.921875 -76.691406 27.703125 -75.234375 C 25.492188 -73.773438 24.390625 -72.109375 24.390625 -70.234375 C 24.390625 -68.347656 25.707031 -66.535156 28.34375 -64.796875 C 30.976562 -63.054688 34.382812 -61.390625 38.5625 -59.796875 C 42.75 -58.203125 47.21875 -56.582031 51.96875 -54.9375 C 56.71875 -53.289062 61.160156 -51.617188 65.296875 -49.921875 Z M 65.296875 -49.921875 "/></g></g></g><g fill="#ffffff" fill-opacity="1"><g transform="translate(772.09841, 1465.658071)"><g><path d="M 56.546875 -76.859375 L 56.546875 -76.296875 L 42.734375 -76.296875 L 42.734375 -6.625 C 42.734375 -4.9375 43.53125 -3.617188 45.125 -2.671875 C 46.726562 -1.734375 48.09375 -1.878906 49.21875 -3.109375 C 45.082031 1.503906 39.863281 3.8125 33.5625 3.8125 C 29.613281 3.8125 25.898438 2.914062 22.421875 1.125 C 18.941406 -0.65625 16.144531 -3.257812 14.03125 -6.6875 C 11.914062 -10.125 10.859375 -14.191406 10.859375 -18.890625 L 10.859375 -76.296875 L 2.828125 -76.296875 L 2.828125 -76.859375 L 10.859375 -76.859375 C 16.316406 -76.859375 20.898438 -77.46875 24.609375 -78.6875 C 28.328125 -79.914062 31.382812 -81.421875 33.78125 -83.203125 C 36.175781 -84.992188 38.007812 -86.78125 39.28125 -88.5625 C 40.550781 -90.351562 41.441406 -91.859375 41.953125 -93.078125 C 42.472656 -94.296875 42.734375 -94.90625 42.734375 -94.90625 L 42.734375 -76.859375 Z M 56.546875 -76.859375 "/></g></g></g><g fill="#ffffff" fill-opacity="1"><g transform="translate(831.47285, 1465.658071)"><g><path d="M 93.640625 -13.25 C 93.921875 -12.21875 94.53125 -11.394531 95.46875 -10.78125 C 96.414062 -10.175781 97.425781 -9.921875 98.5 -10.015625 C 99.582031 -10.109375 100.363281 -10.625 100.84375 -11.5625 C 99.425781 -8.644531 97.445312 -6.242188 94.90625 -4.359375 C 92.375 -2.484375 89.507812 -1.171875 86.3125 -0.421875 C 82.363281 0.328125 78.554688 0.113281 74.890625 -1.0625 C 71.222656 -2.238281 68.023438 -4.210938 65.296875 -6.984375 C 62.566406 -9.753906 60.6875 -13.113281 59.65625 -17.0625 L 58.390625 -21.71875 C 58.109375 -19.175781 57.398438 -16.78125 56.265625 -14.53125 C 53.828125 -9.539062 50.488281 -5.707031 46.25 -3.03125 C 42.019531 -0.351562 37.484375 1.238281 32.640625 1.75 C 27.804688 2.269531 23.203125 1.707031 18.828125 0.0625 C 14.453125 -1.570312 10.785156 -4.195312 7.828125 -7.8125 C 4.867188 -11.4375 3.25 -16.023438 2.96875 -21.578125 C 2.769531 -26.085938 3.726562 -29.867188 5.84375 -32.921875 C 7.96875 -35.984375 10.789062 -38.476562 14.3125 -40.40625 C 17.84375 -42.332031 21.601562 -43.8125 25.59375 -44.84375 C 29.59375 -45.882812 33.378906 -46.613281 36.953125 -47.03125 C 40.523438 -47.457031 43.460938 -47.71875 45.765625 -47.8125 C 48.066406 -47.90625 49.21875 -47.953125 49.21875 -47.953125 L 51.1875 -47.953125 L 47.390625 -61.484375 C 46.546875 -64.773438 44.804688 -67.21875 42.171875 -68.8125 C 39.535156 -70.414062 36.6875 -71.097656 33.625 -70.859375 C 30.570312 -70.628906 27.921875 -69.242188 25.671875 -66.703125 C 29.148438 -70.648438 33.117188 -73.539062 37.578125 -75.375 C 42.046875 -77.207031 46.609375 -78.078125 51.265625 -77.984375 C 55.921875 -77.890625 60.382812 -76.851562 64.65625 -74.875 C 68.9375 -72.90625 72.648438 -70.109375 75.796875 -66.484375 C 78.953125 -62.867188 81.234375 -58.523438 82.640625 -53.453125 L 88.5625 -32.015625 Z M 49.078125 -11.28125 C 52.273438 -11.75 54.671875 -13.300781 56.265625 -15.9375 C 58.054688 -18.570312 58.484375 -21.441406 57.546875 -24.546875 L 51.1875 -47.53125 C 47.8125 -46.6875 44.828125 -45.015625 42.234375 -42.515625 C 39.648438 -40.023438 37.695312 -37.109375 36.375 -33.765625 C 35.0625 -30.429688 34.5 -26.929688 34.6875 -23.265625 C 34.875 -19.878906 36.238281 -17.007812 38.78125 -14.65625 C 41.320312 -12.3125 44.332031 -11.140625 47.8125 -11.140625 C 48.375 -11.140625 48.796875 -11.1875 49.078125 -11.28125 Z M 49.078125 -11.28125 "/></g></g></g><g fill="#ffffff" fill-opacity="1"><g transform="translate(935.131303, 1465.658071)"><g><path d="M 90.40625 -10.4375 C 92.28125 -7.519531 93.875 -5.238281 95.1875 -3.59375 C 96.507812 -1.945312 97.6875 -0.75 98.71875 0 L 59.234375 0 L 40.609375 -29.046875 L 37.234375 -25.53125 L 37.234375 -11.703125 C 37.234375 -8.035156 37.441406 -5.332031 37.859375 -3.59375 C 38.285156 -1.851562 38.921875 -0.65625 39.765625 0 L 2.828125 0 C 3.578125 -0.65625 4.1875 -1.851562 4.65625 -3.59375 C 5.125 -5.332031 5.359375 -7.988281 5.359375 -11.5625 L 5.640625 -87.296875 C 5.640625 -90.867188 5.453125 -93.5 5.078125 -95.1875 C 4.703125 -96.882812 4.140625 -98.0625 3.390625 -98.71875 L 37.375 -98.71875 L 37.234375 -26.234375 L 62.765625 -52.328125 C 64.921875 -54.578125 65.90625 -57.113281 65.71875 -59.9375 C 65.53125 -62.757812 64.519531 -65.226562 62.6875 -67.34375 C 60.851562 -69.457031 58.382812 -70.515625 55.28125 -70.515625 L 81.09375 -70.515625 L 63.328125 -52.328125 Z M 90.40625 -10.4375 "/></g></g></g><g fill="#ffffff" fill-opacity="1"><g transform="translate(1036.674273, 1465.658071)"><g><path d="M 82.21875 -24.828125 C 83.726562 -26.328125 84.953125 -27.875 85.890625 -29.46875 C 83.441406 -22.519531 79.351562 -16.597656 73.625 -11.703125 C 69.289062 -8.035156 64.488281 -5.191406 59.21875 -3.171875 C 53.957031 -1.148438 48.507812 -0.09375 42.875 0 C 37.320312 0 32.125 -1.03125 27.28125 -3.09375 C 22.445312 -5.164062 18.195312 -8.035156 14.53125 -11.703125 C 10.863281 -15.367188 7.992188 -19.625 5.921875 -24.46875 C 3.859375 -29.3125 2.828125 -34.503906 2.828125 -40.046875 C 2.828125 -45.597656 3.859375 -50.816406 5.921875 -55.703125 C 7.992188 -60.597656 10.863281 -64.878906 14.53125 -68.546875 C 18.195312 -72.210938 22.445312 -75.078125 27.28125 -77.140625 C 32.125 -79.210938 37.320312 -80.25 42.875 -80.25 L 46.546875 -80.25 C 52.742188 -80.25 58.546875 -78.90625 63.953125 -76.21875 C 69.359375 -73.539062 73.960938 -69.875 77.765625 -65.21875 C 81.578125 -60.570312 84.191406 -55.191406 85.609375 -49.078125 L 33.703125 -49.078125 L 33.703125 -46.40625 C 33.703125 -41.507812 34.78125 -36.96875 36.9375 -32.78125 C 39.101562 -28.601562 42.09375 -25.101562 45.90625 -22.28125 C 49.71875 -19.457031 54.019531 -17.71875 58.8125 -17.0625 C 63.132812 -16.40625 67.335938 -16.78125 71.421875 -18.1875 C 75.515625 -19.601562 79.113281 -21.816406 82.21875 -24.828125 Z M 33.703125 -69.25 L 33.703125 -49.640625 L 54.71875 -49.640625 L 54.71875 -69.25 C 54.71875 -72.164062 53.707031 -74.632812 51.6875 -76.65625 C 49.664062 -78.675781 47.195312 -79.6875 44.28125 -79.6875 C 41.363281 -79.6875 38.867188 -78.675781 36.796875 -76.65625 C 34.734375 -74.632812 33.703125 -72.164062 33.703125 -69.25 Z M 33.703125 -69.25 "/></g></g></g><path stroke-linecap="butt" transform="matrix(1.022826, 0.00152372, -0.00152372, 1.022826, 35.678658, 1333.05517)" fill="none" stroke-linejoin="miter" d="M 0.000168007 2.000723 L 1342.538637 1.9981 " stroke="#ffffff" stroke-width="4" stroke-opacity="1" stroke-miterlimit="4"/><path stroke-linecap="butt" transform="matrix(1.022826, 0.00152372, -0.00152372, 1.022826, 33.409117, 1498.056669)" fill="none" stroke-linejoin="miter" d="M 0.000175214 1.999258 L 1342.53865 2.000454 " stroke="#ffffff" stroke-width="4" stroke-opacity="1" stroke-miterlimit="4"/></svg>